<?xml version="1.0" encoding="UTF-8"?>
<svg width="25px" height="22px" viewBox="0 0 25 22" version="1.1" xmlns="http://www.w3.org/2000/svg" xmlns:xlink="http://www.w3.org/1999/xlink">
    <!-- Generator: Sketch 49.3 (51167) - http://www.bohemiancoding.com/sketch -->
    <title>account</title>
    <desc>Created with Sketch.</desc>
    <defs></defs>
    <g id="Page-1" stroke="none" stroke-width="1" fill="none" fill-rule="evenodd">
        <g id="edit-invoice" transform="translate(-160.000000, -152.000000)">
            <g id="leftnav" transform="translate(159.000000, 115.000000)">
                <g id="account" transform="translate(1.000000, 37.000000)">
                    <g id="account-secondary" fill="#1F1F1F" fill-opacity="0.4">
                        <path d="M22.5,2.44444444 L16.01875,2.44444444 C15.50125,1.02544444 14.1275,0 12.5,0 C10.8725,0 9.49875,1.02544444 8.98125,2.44444444 L2.5,2.44444444 C1.12125,2.44444444 0,3.54077778 0,4.88888889 L0,19.5555556 C0,20.9036667 1.12125,22 2.5,22 L22.5,22 C23.87875,22 25,20.9036667 25,19.5555556 L25,4.88888889 C25,3.54077778 23.87875,2.44444444 22.5,2.44444444 L22.5,2.44444444 Z" id="Fill-78"></path>
                    </g>
                    <circle id="Oval-Copy-2" fill="#EFEFEF" cx="12.5" cy="3.5" r="1.5"></circle>
                    <g id="account-active" transform="translate(4.000000, 7.000000)" fill="#F8F9FB">
                        <circle id="Oval" cx="3.5" cy="2.5" r="2.5"></circle>
                        <path d="M7,9.5 C7,7.56700338 5.43299662,6 3.5,6 C1.56700338,6 0,7.56700338 0,9.5 C0,11.4329966 7,11.4329966 7,9.5 Z" id="Oval-Copy"></path>
                        <rect id="Rectangle-8" x="10" y="5" width="7" height="2" rx="1"></rect>
                        <rect id="Rectangle-8-Copy-2" x="10" y="2" width="7" height="2" rx="1"></rect>
                        <rect id="Rectangle-8-Copy" x="10" y="8" width="7" height="2" rx="1"></rect>
                    </g>
                </g>
            </g>
        </g>
    </g>
</svg>