<?xml version="1.0" encoding="UTF-8"?>
<svg width="25px" height="22px" viewBox="0 0 25 22" version="1.1" xmlns="http://www.w3.org/2000/svg" xmlns:xlink="http://www.w3.org/1999/xlink">
    <!-- Generator: Sketch 49.3 (51167) - http://www.bohemiancoding.com/sketch -->
    <title>account</title>
    <desc>Created with Sketch.</desc>
    <defs></defs>
    <g id="Page-1" stroke="none" stroke-width="1" fill="none" fill-rule="evenodd" fill-opacity="0.8">
        <g id="edit-invoice" transform="translate(-160.000000, -152.000000)" fill="#1F1F1F">
            <g id="leftnav" transform="translate(159.000000, 116.000000)">
                <g id="account" transform="translate(1.000000, 36.000000)">
                    <path d="M21.25,12.2222222 L13.75,12.2222222 L13.75,9.77777778 L21.25,9.77777778 L21.25,12.2222222 Z M21.25,17.1111111 L13.75,17.1111111 L13.75,14.6666667 L21.25,14.6666667 L21.25,17.1111111 Z M12.5,4.88888889 C11.81125,4.88888889 11.25,4.34133333 11.25,3.66666667 C11.25,2.99444444 11.81125,2.44444444 12.5,2.44444444 C13.18875,2.44444444 13.75,2.99444444 13.75,3.66666667 C13.75,4.34133333 13.18875,4.88888889 12.5,4.88888889 L12.5,4.88888889 Z M3.75,17.1111111 C3.75,14.8622222 5.19875,13.4444444 7.5,13.4444444 C9.80125,13.4444444 11.25,14.8622222 11.25,17.1111111 L3.75,17.1111111 Z M7.5,7.33333333 C8.88,7.33333333 10,8.42844444 10,9.77777778 C10,11.1283333 8.88,12.2222222 7.5,12.2222222 C6.12,12.2222222 5,11.1283333 5,9.77777778 C5,8.42844444 6.12,7.33333333 7.5,7.33333333 L7.5,7.33333333 Z M22.5,2.44444444 L16.01875,2.44444444 C15.50125,1.02544444 14.1275,0 12.5,0 C10.8725,0 9.49875,1.02544444 8.98125,2.44444444 L2.5,2.44444444 C1.12125,2.44444444 0,3.54077778 0,4.88888889 L0,19.5555556 C0,20.9036667 1.12125,22 2.5,22 L22.5,22 C23.87875,22 25,20.9036667 25,19.5555556 L25,4.88888889 C25,3.54077778 23.87875,2.44444444 22.5,2.44444444 L22.5,2.44444444 Z" id="Fill-78"></path>
                </g>
            </g>
        </g>
    </g>
</svg>