<?xml version="1.0" encoding="UTF-8"?>
<svg width="18px" height="24px" viewBox="0 0 18 24" version="1.1" xmlns="http://www.w3.org/2000/svg" xmlns:xlink="http://www.w3.org/1999/xlink">
    <title>coupons</title>
    <g id="Page-1" stroke="none" stroke-width="1" fill="none" fill-rule="evenodd">
        <g id="edit-invoice" transform="translate(-138, -392)">
            <g id="coupons" transform="translate(138, 391.9995)">
                <path d="M3.5859,11.0005 L6.4139,11.0005 L4.4139,9.0005 L10.9999,2.4155 L14.5859,6.0005 L9.5859,11.0005 L12.4139,11.0005 L16.7069,6.7085 C17.0979,6.3165 17.0979,5.6845 16.7069,5.2945 L11.7069,0.2945 C11.3159,-0.0975 10.6839,-0.0975 10.2929,0.2945 L2.2929,8.2945 C1.9019,8.6845 1.9019,9.3165 2.2929,9.7085 L3.5859,11.0005 Z" id="coupons-primary" fill="#BBBBBB"></path>
                <path d="M12,19.0005 L10,19.0005 L10,21.0005 L8,21.0005 L8,19.0005 L6,19.0005 L6,17.0005 L8,17.0005 L8,15.0005 L10,15.0005 L10,17.0005 L12,17.0005 L12,19.0005 Z M17,12.0005 L1,12.0005 C0.448,12.0005 0,12.4485 0,13.0005 L0,23.0005 C0,23.5535 0.448,24.0005 1,24.0005 L17,24.0005 C17.552,24.0005 18,23.5535 18,23.0005 L18,13.0005 C18,12.4485 17.552,12.0005 17,12.0005 L17,12.0005 Z" id="coupons-secondary" fill="#A0A1A2"></path>
                <path d="M9.5,6.0005 C8.671,6.0005 8,6.6715 8,7.5005 C8,8.3295 8.671,9.0005 9.5,9.0005 C10.329,9.0005 11,8.3295 11,7.5005 C11,6.6715 10.329,6.0005 9.5,6.0005" id="coupons-tertiary" fill="#A0A1A2"></path>
            </g>
        </g>
    </g>
</svg>