<?xml version="1.0" encoding="UTF-8"?>
<svg width="21px" height="21px" viewBox="0 0 21 21" version="1.1" xmlns="http://www.w3.org/2000/svg" xmlns:xlink="http://www.w3.org/1999/xlink">
    <!-- Generator: Sketch 49.3 (51167) - http://www.bohemiancoding.com/sketch -->
    <title>feedback</title>
    <desc>Created with Sketch.</desc>
    <defs></defs>
    <g id="Page-1" stroke="none" stroke-width="1" fill="none" fill-rule="evenodd">
        <g id="edit-invoice" transform="translate(-161.000000, -390.000000)" fill="#A0A1A2">
            <g id="leftnav" transform="translate(159.000000, 115.000000)">
                <g id="feedback" transform="translate(2.000000, 275.000000)">
                    <g id="feedback-secondary" transform="translate(0.000000, 4.000000)">
                        <path d="M10.5857182,0.783086957 L1.9089,0.783086957 C0.856036364,0.783086957 -0.000190909091,1.64108696 -0.000190909091,2.69613043 L-0.000190909091,11.3048261 C-0.000190909091,12.3598696 0.856036364,13.2178696 1.9089,13.2178696 L2.86344545,13.2178696 L2.86344545,17.0439565 L7.95499091,13.2178696 L14.3179909,13.2178696 C15.3708545,13.2178696 16.2270818,12.3598696 16.2270818,11.3048261 L16.2270818,5.56569565 C13.3901727,5.56569565 11.0410364,3.49673913 10.5857182,0.783086957" id="Fill-114"></path>
                    </g>
                    <g id="feedback-active" transform="translate(11.000000, 0.000000)">
                        <polygon id="Fill-115" points="4.27272727 7.09222609 0.734227273 3.54544348 2.08395455 2.19387826 4.27272727 4.38718261 8.37059091 0.280834783 9.72031818 1.6324"></polygon>
                    </g>
                </g>
            </g>
        </g>
    </g>
</svg>