<?xml version="1.0" encoding="UTF-8"?>
<svg width="19px" height="25px" viewBox="0 0 19 25" version="1.1" xmlns="http://www.w3.org/2000/svg" xmlns:xlink="http://www.w3.org/1999/xlink">
    <!-- Generator: Sketch 49.3 (51167) - http://www.bohemiancoding.com/sketch -->
    <title>help</title>
    <desc>Created with Sketch.</desc>
    <defs></defs>
    <g id="Page-1" stroke="none" stroke-width="1" fill="none" fill-rule="evenodd" fill-opacity="0.8">
        <g id="edit-invoice" transform="translate(-160.000000, -396.000000)" fill="#1F1F1F">
            <g id="leftnav" transform="translate(159.000000, 116.000000)">
                <g id="help" transform="translate(1.000000, 280.117647)">
                    <path d="M10.5888235,15.7810868 L10.5888235,17.256381 L8.23588235,17.256381 L8.23588235,15.7810868 C6.89705882,15.2474174 5.88294118,13.8670252 5.88294118,12.326409 L8.23588235,12.326409 C8.23588235,12.936493 8.83,13.558902 9.41235294,13.558902 C9.99470588,13.558902 10.5888235,12.936493 10.5888235,12.326409 C10.5888235,12.0786779 9.92764706,11.883944 9.12647059,11.6744202 C7.91352941,11.356437 5.88294118,10.824 5.88294118,8.62892997 C5.88294118,7.08831373 6.89705882,5.70915406 8.23588235,5.17548459 L8.23588235,3.69895798 L10.5888235,3.69895798 L10.5888235,5.17548459 C11.9264706,5.70915406 12.9382353,7.08954622 12.9382353,8.62892997 L10.5852941,8.62892997 C10.5852941,8.01884594 9.99352941,7.39643697 9.41235294,7.39643697 C8.83,7.39643697 8.23588235,8.01884594 8.23588235,8.62892997 C8.23588235,8.87912605 8.89823529,9.07385994 9.69823529,9.28215126 C10.9111765,9.60013445 12.9417647,10.1325714 12.9417647,12.326409 C12.9417647,13.8670252 11.9288235,15.2474174 10.5888235,15.7810868 M9.41235294,0.0014789916 C4.21470588,0.0014789916 0.000588235294,4.41626891 0.000588235294,9.86142297 C0.000588235294,15.306577 9.41235294,24.6513389 9.41235294,24.6513389 C9.41235294,24.6513389 18.8241176,15.306577 18.8241176,9.86142297 C18.8241176,4.41626891 14.61,0.0014789916 9.41235294,0.0014789916" id="Fill-519"></path>
                </g>
            </g>
        </g>
    </g>
</svg>