<?xml version="1.0" encoding="UTF-8"?>
<svg width="33px" height="29px" viewBox="0 0 33 29" version="1.1" xmlns="http://www.w3.org/2000/svg" xmlns:xlink="http://www.w3.org/1999/xlink">
    <!-- Generator: Sketch 49.3 (51167) - http://www.bohemiancoding.com/sketch -->
    <title>home</title>
    <desc>Created with Sketch.</desc>
    <defs></defs>
    <g id="Page-1" stroke="none" stroke-width="1" fill="none" fill-rule="evenodd">
        <g id="edit-invoice" transform="translate(-98.000000, -96.000000)">
            <g id="leftnav" transform="translate(28.000000, 114.000000)">
                <g id="home" transform="translate(72.000000, -17.000000)">
                    <g id="home-tertiary" fill="#A0A1A2">
                        <path d="M27.9002853,11.8006694 L27.9002853,4.66699074 L23.2504583,4.66699074 L23.2504583,7.13406758 L16.5965559,0.456160331 C15.9905285,-0.152053444 15.009415,-0.152053444 14.4049374,0.456160331 L0.455456503,14.4559659 C0.0106230547,14.9008486 -0.122671985,15.5697282 0.119119018,16.1514979 C0.357810136,16.7332676 0.923539086,17.1112623 1.55126573,17.1112623 L1.86120806,17.1112623 L1.86120806,28 L12.400862,28 L27.9002853,28 L27.9002853,17.1112623 L29.4502276,17.1112623 C30.0764043,17.1112623 30.6421333,16.7332676 30.8808244,16.1514979 C31.1226154,15.5697282 30.9893204,14.9008486 30.5460368,14.4559659 L27.9002853,11.8006694 Z" id="Fill-533"></path>
                    </g>
                    <g id="home-secondary" transform="translate(7.440000, 16.545455)" fill="#F8F9FB">
                        <path d="M4.96,8.93181818 L4.96,11.4545455 L0,11.4545455 L0,8.93181818 L0,2.52272727 C-8.45442189e-17,1.83237134 0.559644063,1.27272727 1.25,1.27272727 L3.71,1.27272727 C4.40035594,1.27272727 4.96,1.83237134 4.96,2.52272727 L4.96,8.93181818 Z" id="Combined-Shape"></path>
                        <rect id="Rectangle-12" x="8.68" y="0" width="8.68" height="3.81818182" rx="1.25"></rect>
                    </g>
                    <g id="home-primary" transform="translate(0.000000, 1.272727)" fill="#979797" fill-rule="nonzero">
                        <path d="M15.2642549,2.87626655 L2.05510143,16.4340487 C1.32872624,17.179595 0.151039382,17.179595 -0.575335801,16.4340487 C-1.30171098,15.6885023 -1.30171098,14.4797328 -0.575335801,13.7341864 L13.9490362,-1.17352683 C14.6754114,-1.9190732 15.8530983,-1.9190732 16.5794735,-1.17352683 L30.3587048,12.9693793 C31.08508,13.7149256 31.08508,14.9236951 30.3587048,15.6692415 C29.6323296,16.4147879 28.4546428,16.4147879 27.7282676,15.6692415 L15.2642549,2.87626655 Z" id="Path-4"></path>
                    </g>
                </g>
            </g>
        </g>
    </g>
</svg>