<?xml version="1.0" encoding="UTF-8"?>
<svg width="25px" height="22px" viewBox="0 0 25 22" version="1.1" xmlns="http://www.w3.org/2000/svg" xmlns:xlink="http://www.w3.org/1999/xlink">
    <!-- Generator: Sketch 49.3 (51167) - http://www.bohemiancoding.com/sketch -->
    <title>home</title>
    <desc>Created with Sketch.</desc>
    <defs></defs>
    <g id="Page-1" stroke="none" stroke-width="1" fill="none" fill-rule="evenodd">
        <g id="edit-invoice" transform="translate(-160.000000, -116.000000)">
            <g id="leftnav" transform="translate(159.000000, 115.000000)">
                <g id="home" transform="translate(1.000000, 1.000000)">
                    <g id="house-secondary" fill="#A0A1A2">
                        <path d="M22.5002301,9.27195456 L22.5002301,3.66692129 L18.7503696,3.66692129 L18.7503696,5.60533881 L13.3843193,0.358411689 C12.8955875,-0.119470563 12.1043669,-0.119470563 11.616885,0.358411689 L0.367303631,11.3582589 C0.00856697957,11.7078096 -0.0989290206,12.2333579 0.0960637239,12.6904626 C0.288556561,13.1475674 0.744789585,13.4445633 1.25102075,13.4445633 L2.50097424,13.4445633 L2.50097424,22 L10.0006952,22 L22.5002301,22 L22.5002301,13.4445633 L23.7501836,13.4445633 C24.2551648,13.4445633 24.7113978,13.1475674 24.9038906,12.6904626 C25.0988834,12.2333579 24.9913874,11.7078096 24.6339007,11.3582589 L22.5002301,9.27195456 Z" id="Fill-533"></path>
                    </g>
                    <g id="house-active" transform="translate(6.000000, 13.000000)" fill="#F8F9FB">
                        <path d="M4,7 L4,9 L0,9 L0,7 L0,2 C-6.76353751e-17,1.44771525 0.44771525,1 1,1 L3,1 C3.55228475,1 4,1.44771525 4,2 L4,7 Z" id="Combined-Shape"></path>
                        <rect id="Rectangle-12" x="7" y="0" width="7" height="3" rx="1"></rect>
                    </g>
                </g>
            </g>
        </g>
    </g>
</svg>