<?xml version="1.0" encoding="UTF-8"?>
<svg width="25px" height="22px" viewBox="0 0 25 22" version="1.1" xmlns="http://www.w3.org/2000/svg" xmlns:xlink="http://www.w3.org/1999/xlink">
    <!-- Generator: Sketch 49.3 (51167) - http://www.bohemiancoding.com/sketch -->
    <title>home</title>
    <desc>Created with Sketch.</desc>
    <defs></defs>
    <g id="Page-1" stroke="none" stroke-width="1" fill="none" fill-rule="evenodd" fill-opacity="0.8">
        <g id="edit-invoice" transform="translate(-160.000000, -116.000000)" fill="#1F1F1F">
            <g id="leftnav" transform="translate(159.000000, 116.000000)">
                <g id="home" transform="translate(1.000000, 0.000000)">
                    <path d="M19.8107619,16.9485789 L13.6202857,16.9485789 L13.6202857,13.317 L19.8107619,13.317 L19.8107619,16.9485789 Z M24.400381,11.2506316 L22.2869524,9.18426316 L22.2869524,3.63278947 L18.5726667,3.63278947 L18.5726667,5.55268421 L13.2575238,0.355894737 C12.7734286,-0.117421053 11.9897143,-0.117421053 11.5068571,0.355894737 L0.364,11.2506316 C0.00866666667,11.5968421 -0.0978095238,12.1173684 0.0953333333,12.5701053 C0.286,13.0228421 0.737904762,13.317 1.23933333,13.317 L2.47742857,13.317 L2.47742857,21.7906842 L6.19171429,21.7906842 L6.19171429,15.7380526 L9.906,15.7380526 L9.906,21.7906842 L22.2869524,21.7906842 L22.2869524,13.317 L23.5250476,13.317 C24.0252381,13.317 24.4771429,13.0228421 24.6678095,12.5701053 C24.8609524,12.1173684 24.7544762,11.5968421 24.400381,11.2506316 L24.400381,11.2506316 Z" id="Fill-533"></path>
                </g>
            </g>
        </g>
    </g>
</svg>