<?xml version="1.0" encoding="UTF-8"?>
<svg width="27px" height="25px" viewBox="0 0 27 25" version="1.1" xmlns="http://www.w3.org/2000/svg" xmlns:xlink="http://www.w3.org/1999/xlink">
    <!-- Generator: Sketch 49.3 (51167) - http://www.bohemiancoding.com/sketch -->
    <title>invoices</title>
    <desc>Created with Sketch.</desc>
    <defs></defs>
    <g id="Page-1" stroke="none" stroke-width="1" fill="none" fill-rule="evenodd">
        <g id="edit-invoice" transform="translate(-162.000000, -166.000000)" fill="#A0A1A2">
            <g id="leftnav" transform="translate(91.000000, 118.000000)">
                <g id="invoices" transform="translate(71.000000, 48.000000)">
                    <g id="invoices-tertiary" transform="translate(0.000000, 12.000000)">
                        <path d="M23.3641125,2.69621739 C22.3369875,7.22021739 18.3083625,10.6092609 13.5001125,10.6092609 C8.9382375,10.6092609 5.0749875,7.5616087 3.8127375,3.38691304 L6.7501125,0.435347826 L0.0001125,0.435347826 L0.0001125,7.21795652 L2.0554875,5.15265217 C3.9083625,9.67552174 8.3386125,12.8701304 13.5001125,12.8701304 C19.5548625,12.8701304 24.5982375,8.475 25.6602375,2.69621739 L23.3641125,2.69621739 Z" id="Fill-66"></path>
                    </g>
                    <g id="invoices-secondary" transform="translate(1.000000, 0.000000)">
                        <path d="M23.9445125,7.71815652 C22.0916375,3.19641739 17.6613875,0.000678260869 12.4998875,0.000678260869 C6.4451375,0.000678260869 1.4017625,4.3958087 0.3397625,10.1745913 L2.6358875,10.1745913 C3.6630125,5.64946087 7.6916375,2.26154783 12.4998875,2.26154783 C17.0617625,2.26154783 20.9250125,5.3092 22.1872625,9.48389565 L19.2498875,12.4354609 L25.9998875,12.4354609 L25.9998875,5.65285217 L23.9445125,7.71815652 Z" id="Fill-67"></path>
                    </g>
                    <g id="invoices-primary" transform="translate(7.000000, 7.000000)">
                        <path d="M6.5,4.44734783 L11.38025,1.50482609 C10.980875,1.14195652 10.456625,0.913608696 9.875,0.913608696 L3.125,0.913608696 C2.543375,0.913608696 2.019125,1.14195652 1.61975,1.50482609 L6.5,4.44734783 Z" id="Fill-64"></path>
                        <path d="M6.9339125,6.16278261 C6.8000375,6.24304348 6.6504125,6.2826087 6.4996625,6.2826087 C6.3489125,6.2826087 6.1992875,6.24304348 6.0665375,6.16278261 L0.8881625,3.04052174 C0.8859125,3.08686957 0.8746625,3.12869565 0.8746625,3.17391304 L0.8746625,7.69565217 C0.8746625,8.94478261 1.8826625,9.95652174 3.1246625,9.95652174 L9.8746625,9.95652174 C11.1177875,9.95652174 12.1246625,8.94478261 12.1246625,7.69565217 L12.1246625,3.17391304 C12.1246625,3.12869565 12.1145375,3.08686957 12.1122875,3.04052174 L6.9339125,6.16278261 Z" id="Fill-65"></path>
                    </g>
                </g>
            </g>
        </g>
    </g>
</svg>