<?xml version="1.0" encoding="UTF-8"?>
<svg width="27px" height="25px" viewBox="0 0 27 25" version="1.1" xmlns="http://www.w3.org/2000/svg" xmlns:xlink="http://www.w3.org/1999/xlink">
    <!-- Generator: Sketch 49.3 (51167) - http://www.bohemiancoding.com/sketch -->
    <title>invoices</title>
    <desc>Created with Sketch.</desc>
    <defs></defs>
    <g id="Page-1" stroke="none" stroke-width="1" fill="none" fill-rule="evenodd">
        <g id="edit-invoice" transform="translate(-159.000000, -208.000000)" fill="#A0A1A2">
            <g id="leftnav" transform="translate(159.000000, 115.000000)">
                <g id="invoices" transform="translate(0.000000, 93.000000)">
                    <g id="invoices-secondary">
                        <path d="M23.3641125,14.6962174 C22.3369875,19.2202174 18.3083625,22.6092609 13.5001125,22.6092609 C8.9382375,22.6092609 5.0749875,19.5616087 3.8127375,15.386913 L6.7501125,12.4353478 L0.0001125,12.4353478 L0.0001125,19.2179565 L2.0554875,17.1526522 C3.9083625,21.6755217 8.3386125,24.8701304 13.5001125,24.8701304 C19.5548625,24.8701304 24.5982375,20.475 25.6602375,14.6962174 L23.3641125,14.6962174 Z" id="Fill-66"></path>
                        <path d="M24.9445125,7.71815652 C23.0916375,3.19641739 18.6613875,0.000678260869 13.4998875,0.000678260869 C7.4451375,0.000678260869 2.4017625,4.3958087 1.3397625,10.1745913 L3.6358875,10.1745913 C4.6630125,5.64946087 8.6916375,2.26154783 13.4998875,2.26154783 C18.0617625,2.26154783 21.9250125,5.3092 23.1872625,9.48389565 L20.2498875,12.4354609 L26.9998875,12.4354609 L26.9998875,5.65285217 L24.9445125,7.71815652 Z" id="Fill-67"></path>
                    </g>
                    <g id="invoices-active" transform="translate(7.000000, 7.000000)">
                        <path d="M6.5,4.44734783 L11.38025,1.50482609 C10.980875,1.14195652 10.456625,0.913608696 9.875,0.913608696 L3.125,0.913608696 C2.543375,0.913608696 2.019125,1.14195652 1.61975,1.50482609 L6.5,4.44734783 Z" id="Fill-64"></path>
                        <path d="M6.9339125,6.16278261 C6.8000375,6.24304348 6.6504125,6.2826087 6.4996625,6.2826087 C6.3489125,6.2826087 6.1992875,6.24304348 6.0665375,6.16278261 L0.8881625,3.04052174 C0.8859125,3.08686957 0.8746625,3.12869565 0.8746625,3.17391304 L0.8746625,7.69565217 C0.8746625,8.94478261 1.8826625,9.95652174 3.1246625,9.95652174 L9.8746625,9.95652174 C11.1177875,9.95652174 12.1246625,8.94478261 12.1246625,7.69565217 L12.1246625,3.17391304 C12.1246625,3.12869565 12.1145375,3.08686957 12.1122875,3.04052174 L6.9339125,6.16278261 Z" id="Fill-65"></path>
                    </g>
                </g>
            </g>
        </g>
    </g>
</svg>