<?xml version="1.0" encoding="UTF-8"?>
<svg width="27px" height="25px" viewBox="0 0 27 25" version="1.1" xmlns="http://www.w3.org/2000/svg" xmlns:xlink="http://www.w3.org/1999/xlink">
    <!-- Generator: Sketch 49.3 (51167) - http://www.bohemiancoding.com/sketch -->
    <title>invoices</title>
    <desc>Created with Sketch.</desc>
    <defs></defs>
    <g id="Page-1" stroke="none" stroke-width="1" fill="none" fill-rule="evenodd" fill-opacity="0.8">
        <g id="edit-invoice" transform="translate(-159.000000, -208.000000)" fill="#1F1F1F">
            <g id="leftnav" transform="translate(159.000000, 116.000000)">
                <g id="invoices" transform="translate(0.000000, 92.000000)">
                    <path d="M13.5,11.4473478 L18.38025,8.50482609 C17.980875,8.14195652 17.456625,7.9136087 16.875,7.9136087 L10.125,7.9136087 C9.543375,7.9136087 9.019125,8.14195652 8.61975,8.50482609 L13.5,11.4473478 Z" id="Fill-64"></path>
                    <path d="M13.9339125,13.1627826 C13.8000375,13.2430435 13.6504125,13.2826087 13.4996625,13.2826087 C13.3489125,13.2826087 13.1992875,13.2430435 13.0665375,13.1627826 L7.8881625,10.0405217 C7.8859125,10.0868696 7.8746625,10.1286957 7.8746625,10.173913 L7.8746625,14.6956522 C7.8746625,15.9447826 8.8826625,16.9565217 10.1246625,16.9565217 L16.8746625,16.9565217 C18.1177875,16.9565217 19.1246625,15.9447826 19.1246625,14.6956522 L19.1246625,10.173913 C19.1246625,10.1286957 19.1145375,10.0868696 19.1122875,10.0405217 L13.9339125,13.1627826 Z" id="Fill-65"></path>
                    <path d="M23.3641125,14.6962174 C22.3369875,19.2202174 18.3083625,22.6092609 13.5001125,22.6092609 C8.9382375,22.6092609 5.0749875,19.5616087 3.8127375,15.386913 L6.7501125,12.4353478 L0.0001125,12.4353478 L0.0001125,19.2179565 L2.0554875,17.1526522 C3.9083625,21.6755217 8.3386125,24.8701304 13.5001125,24.8701304 C19.5548625,24.8701304 24.5982375,20.475 25.6602375,14.6962174 L23.3641125,14.6962174 Z" id="Fill-66"></path>
                    <path d="M24.9445125,7.71815652 C23.0916375,3.19641739 18.6613875,0.000678260869 13.4998875,0.000678260869 C7.4451375,0.000678260869 2.4017625,4.3958087 1.3397625,10.1745913 L3.6358875,10.1745913 C4.6630125,5.64946087 8.6916375,2.26154783 13.4998875,2.26154783 C18.0617625,2.26154783 21.9250125,5.3092 23.1872625,9.48389565 L20.2498875,12.4354609 L26.9998875,12.4354609 L26.9998875,5.65285217 L24.9445125,7.71815652 Z" id="Fill-67"></path>
                </g>
            </g>
        </g>
    </g>
</svg>