<?xml version="1.0" encoding="UTF-8"?>
<svg width="34px" height="31px" viewBox="0 0 34 31" version="1.1" xmlns="http://www.w3.org/2000/svg" xmlns:xlink="http://www.w3.org/1999/xlink">
    <!-- Generator: Sketch 49.3 (51167) - http://www.bohemiancoding.com/sketch -->
    <title>invoices</title>
    <desc>Created with Sketch.</desc>
    <defs></defs>
    <g id="Page-1" stroke="none" stroke-width="1" fill="none" fill-rule="evenodd">
        <g id="edit-invoice" transform="translate(-99.000000, -157.000000)" fill="#A0A1A2">
            <g id="leftnav" transform="translate(28.000000, 114.000000)">
                <g id="invoices" transform="translate(71.000000, 43.000000)">
                    <g id="invoices-tertiary" transform="translate(0.000000, 14.880000)">
                        <path d="M29.421475,3.34330957 C28.1280583,8.95306957 23.054975,13.1554835 17.0001417,13.1554835 C11.2555583,13.1554835 6.390725,9.37639478 4.801225,4.19977217 L8.50014167,0.539831304 L0.000141666667,0.539831304 L0.000141666667,8.95026609 L2.58839167,6.3892887 C4.92164167,11.997647 10.500475,15.9589617 17.0001417,15.9589617 C24.6246417,15.9589617 30.9755583,10.509 32.3128917,3.34330957 L29.421475,3.34330957 Z" id="Fill-66"></path>
                    </g>
                    <g id="invoices-secondary" transform="translate(1.259259, 0.000000)">
                        <path d="M30.1523491,9.57051409 C27.8190991,3.96355757 22.2402657,0.000841043478 15.7405991,0.000841043478 C8.11609907,0.000841043478 1.76518241,5.45080278 0.427849074,12.6164932 L3.31926574,12.6164932 C4.61268241,7.00533148 9.68576574,2.8043193 15.7405991,2.8043193 C21.4851824,2.8043193 26.3500157,6.583408 27.9395157,11.7600306 L24.2405991,15.4199715 L32.7405991,15.4199715 L32.7405991,7.0095367 L30.1523491,9.57051409 Z" id="Fill-67"></path>
                    </g>
                    <g id="invoices-primary" transform="translate(8.814815, 8.680000)">
                        <path d="M8.18518519,5.5147113 L14.3306852,1.86598435 C13.8277685,1.41602609 13.1676019,1.13287478 12.4351852,1.13287478 L3.93518519,1.13287478 C3.20276852,1.13287478 2.54260185,1.41602609 2.03968519,1.86598435 L8.18518519,5.5147113 Z" id="Fill-64"></path>
                        <path d="M8.73159352,7.64185043 C8.56301019,7.74137391 8.37459352,7.79043478 8.18476019,7.79043478 C7.99492685,7.79043478 7.80651019,7.74137391 7.63934352,7.64185043 L1.11842685,3.77024696 C1.11559352,3.82771826 1.10142685,3.87958261 1.10142685,3.93565217 L1.10142685,9.5426087 C1.10142685,11.0915304 2.37076019,12.346087 3.93476019,12.346087 L12.4347602,12.346087 C14.0001769,12.346087 15.2680935,11.0915304 15.2680935,9.5426087 L15.2680935,3.93565217 C15.2680935,3.87958261 15.2553435,3.82771826 15.2525102,3.77024696 L8.73159352,7.64185043 Z" id="Fill-65"></path>
                    </g>
                </g>
            </g>
        </g>
    </g>
</svg>