<?xml version="1.0" encoding="UTF-8"?>
<svg width="28px" height="28px" viewBox="0 0 28 28" version="1.1" xmlns="http://www.w3.org/2000/svg" xmlns:xlink="http://www.w3.org/1999/xlink">
    <!-- Generator: Sketch 49.3 (51167) - http://www.bohemiancoding.com/sketch -->
    <title>logout</title>
    <desc>Created with Sketch.</desc>
    <defs></defs>
    <g id="Page-1" stroke="none" stroke-width="1" fill="none" fill-rule="evenodd">
        <g id="edit-invoice" transform="translate(-100.000000, -310.000000)" fill="#A0A1A2">
            <g id="leftnav" transform="translate(28.000000, 114.000000)">
                <g id="logout" transform="translate(72.000000, 196.000000)">
                    <g id="logout-tertiary" transform="translate(1.272727, 16.545455)">
                        <path d="M23.8683554,7.77254545 L23.6494463,7.75345455 C23.5654463,7.75345455 15.2723554,7.70890909 15.2723554,3.81818182 L15.2723554,2.54545455 L20.3632645,2.54545455 C21.0658099,2.54545455 21.6359917,1.97527273 21.6359917,1.27272727 C21.6359917,0.570181818 21.0658099,0 20.3632645,0 L5.0905372,0 C4.38799175,0 3.81780993,0.570181818 3.81780993,1.27272727 C3.81780993,1.97527273 4.38799175,2.54545455 5.0905372,2.54545455 L10.1814463,2.54545455 L10.1814463,3.81818182 C10.1814463,7.69745455 1.88835538,7.87181818 1.80435538,7.87181818 L1.5905372,7.88963636 C0.57490084,8.064 -0.0767355241,8.85818182 0.00726447588,9.82290909 C0.0899917486,10.7838182 0.873991749,11.4545455 1.91380993,11.4545455 L23.5399917,11.4545455 C25.1881736,11.4545455 25.4159917,10.2938182 25.4465372,9.94 C25.5356281,8.91163636 24.826719,7.93927273 23.8683554,7.77254545" id="Fill-23"></path>
                    </g>
                    <g id="logout-secondary" transform="translate(5.090909, 16.545455)">
                        <rect id="Rectangle-11" x="0" y="0" width="17.8181818" height="2.54545455" rx="1.25"></rect>
                    </g>
                    <g id="logout-primary">
                        <path d="M5.09090909,12.7272727 L11.4545455,12.7272727 L11.4545455,15.2727273 L16.5454545,15.2727273 L16.5454545,12.7272727 L22.9090909,12.7272727 C25.7167273,12.7272727 28,10.444 28,7.63636364 C28,4.82872727 25.7167273,2.54545455 22.9090909,2.54545455 C21.3423636,2.54545455 19.9550909,3.27218182 19.0196364,4.39090909 C18.6747273,1.91672727 16.5670909,0 14,0 C11.4329091,0 9.32527273,1.91672727 8.98036364,4.39090909 C8.04490909,3.27218182 6.65763636,2.54545455 5.09090909,2.54545455 C2.28327273,2.54545455 0,4.82872727 0,7.63636364 C0,10.444 2.28327273,12.7272727 5.09090909,12.7272727" id="Fill-24"></path>
                    </g>
                </g>
            </g>
        </g>
    </g>
</svg>