<?xml version="1.0" encoding="UTF-8"?>
<svg width="22px" height="22px" viewBox="0 0 22 22" version="1.1" xmlns="http://www.w3.org/2000/svg" xmlns:xlink="http://www.w3.org/1999/xlink">
    <!-- Generator: Sketch 49.3 (51167) - http://www.bohemiancoding.com/sketch -->
    <title>nuke</title>
    <desc>Created with Sketch.</desc>
    <defs></defs>
    <g id="Page-1" stroke="none" stroke-width="1" fill="none" fill-rule="evenodd">
        <g id="edit-invoice" transform="translate(-161.000000, -455.000000)" fill="#A0A1A2">
            <g id="leftnav" transform="translate(159.000000, 115.000000)">
                <g id="nuke" transform="translate(2.000000, 340.000000)">
                    <g id="nuke-secondary" transform="translate(1.000000, 13.000000)">
                        <path d="M18.7539,6.1079 L18.5819,6.0929 C18.5159,6.0929 11.9999,6.0579 11.9999,3.0009 L11.9999,2.0009 L15.9999,2.0009 C16.5519,2.0009 16.9999,1.5529 16.9999,1.0009 C16.9999,0.4489 16.5519,0.0009 15.9999,0.0009 L3.9999,0.0009 C3.4479,0.0009 2.9999,0.4489 2.9999,1.0009 C2.9999,1.5529 3.4479,2.0009 3.9999,2.0009 L7.9999,2.0009 L7.9999,3.0009 C7.9999,6.0489 1.4839,6.1859 1.4179,6.1859 L1.2499,6.1999 C0.4519,6.3369 -0.0601,6.9609 0.0059,7.7189 C0.0709,8.4739 0.6869,9.0009 1.5039,9.0009 L18.4959,9.0009 C19.7909,9.0009 19.9699,8.0889 19.9939,7.8109 C20.0639,7.0029 19.5069,6.2389 18.7539,6.1079" id="Fill-23"></path>
                    </g>
                    <g id="nuke-active">
                        <path d="M4,10.0005 L9,10.0005 L9,12.0005 L13,12.0005 L13,10.0005 L18,10.0005 C20.206,10.0005 22,8.2065 22,6.0005 C22,3.7945 20.206,2.0005 18,2.0005 C16.769,2.0005 15.679,2.5715 14.944,3.4505 C14.673,1.5065 13.017,0.0005 11,0.0005 C8.983,0.0005 7.327,1.5065 7.056,3.4505 C6.321,2.5715 5.231,2.0005 4,2.0005 C1.794,2.0005 0,3.7945 0,6.0005 C0,8.2065 1.794,10.0005 4,10.0005" id="Fill-24"></path>
                    </g>
                </g>
            </g>
        </g>
    </g>
</svg>