<?xml version="1.0" encoding="UTF-8"?>
<svg width="22px" height="22px" viewBox="0 0 22 22" version="1.1" xmlns="http://www.w3.org/2000/svg" xmlns:xlink="http://www.w3.org/1999/xlink">
    <!-- Generator: Sketch 49.3 (51167) - http://www.bohemiancoding.com/sketch -->
    <title>nukes</title>
    <desc>Created with Sketch.</desc>
    <defs></defs>
    <g id="Page-1" stroke="none" stroke-width="1" fill="none" fill-rule="evenodd" fill-opacity="0.8">
        <g id="edit-invoice" transform="translate(-160.000000, -524.000000)" fill="#1F1F1F">
            <g id="leftnav" transform="translate(159.000000, 116.000000)">
                <g id="nukes" transform="translate(1.000000, 408.000000)">
                    <path d="M19.7539,19.1079 L19.5819,19.0929 C19.5159,19.0929 12.9999,19.0579 12.9999,16.0009 L12.9999,15.0009 L16.9999,15.0009 C17.5519,15.0009 17.9999,14.5529 17.9999,14.0009 C17.9999,13.4489 17.5519,13.0009 16.9999,13.0009 L4.9999,13.0009 C4.4479,13.0009 3.9999,13.4489 3.9999,14.0009 C3.9999,14.5529 4.4479,15.0009 4.9999,15.0009 L8.9999,15.0009 L8.9999,16.0009 C8.9999,19.0489 2.4839,19.1859 2.4179,19.1859 L2.2499,19.1999 C1.4519,19.3369 0.9399,19.9609 1.0059,20.7189 C1.0709,21.4739 1.6869,22.0009 2.5039,22.0009 L19.4959,22.0009 C20.7909,22.0009 20.9699,21.0889 20.9939,20.8109 C21.0639,20.0029 20.5069,19.2389 19.7539,19.1079" id="Fill-23"></path>
                    <path d="M4,10.0005 L9,10.0005 L9,12.0005 L13,12.0005 L13,10.0005 L18,10.0005 C20.206,10.0005 22,8.2065 22,6.0005 C22,3.7945 20.206,2.0005 18,2.0005 C16.769,2.0005 15.679,2.5715 14.944,3.4505 C14.673,1.5065 13.017,0.0005 11,0.0005 C8.983,0.0005 7.327,1.5065 7.056,3.4505 C6.321,2.5715 5.231,2.0005 4,2.0005 C1.794,2.0005 0,3.7945 0,6.0005 C0,8.2065 1.794,10.0005 4,10.0005" id="Fill-24"></path>
                </g>
            </g>
        </g>
    </g>
</svg>