<?xml version="1.0" encoding="UTF-8"?>
<svg width="23px" height="22px" viewBox="0 0 23 22" version="1.1" xmlns="http://www.w3.org/2000/svg" xmlns:xlink="http://www.w3.org/1999/xlink">
    <!-- Generator: Sketch 52 (66869) - http://www.bohemiancoding.com/sketch -->
    <title>reports</title>
    <desc>Created with Sketch.</desc>
    <g id="Page-1" stroke="none" stroke-width="1" fill="none" fill-rule="evenodd">
        <g id="edit-invoice" transform="translate(-105.000000, -393.000000)">
            <g id="leftnav" transform="translate(28.000000, 114.000000)">
                <g id="reports" transform="translate(77.000000, 279.000000)">
                    <g id="reports-secondary" transform="translate(0.000000, 6.000000)" fill="#A0A1A2">
                        <path d="M19.5714286,13.8 L17.2857143,13.8 L17.2857143,8.3 L19.5714286,8.3 L19.5714286,13.8 Z M15,13.8 L12.7142857,13.8 L12.7142857,10.5 L15,10.5 L15,13.8 Z M10.4274286,13.8 L8.14171429,13.8 L8.14171429,8.3 L10.4274286,8.3 L10.4274286,13.8 Z M5.856,13.8 L3.57028571,13.8 L3.57028571,10.5 L5.856,10.5 L5.856,13.8 Z M18.4274286,4.3565 L13.9508571,0.0478 L9.37942857,5.5478 L5.856,2.1565 L4.04342857,3.9 L0.141714286,3.9 L0.141714286,13.8 C0.141714286,15.0133 1.16685714,16 2.42742857,16 L20.7131429,16 C21.9737143,16 22.9988571,15.0133 22.9988571,13.8 L22.9988571,1.7 L21.1862857,1.7 L18.4274286,4.3565 Z" id="Fill-765"></path>
                    </g>
                    <g id="reports-primary" fill="#BBBBBB">
                        <path d="M20.7131429,0.00055 L2.42742857,0.00055 C1.16685714,0.00055 0.141714286,0.98835 0.141714286,2.20055 L0.141714286,7.70055 L3.09714286,7.70055 L5.856,5.04515 L9.18971429,8.25385 L13.7611429,2.75385 L18.4274286,7.24515 L20.24,5.50055 L22.9988571,5.50055 L22.9988571,2.20055 C22.9988571,0.98835 21.9737143,0.00055 20.7131429,0.00055" id="Fill-766"></path>
                    </g>
                </g>
            </g>
        </g>
    </g>
</svg>