<?xml version="1.0" encoding="UTF-8"?>
<svg width="22px" height="22px" viewBox="0 0 22 22" version="1.1" xmlns="http://www.w3.org/2000/svg" xmlns:xlink="http://www.w3.org/1999/xlink">
    <!-- Generator: Sketch 49.3 (51167) - http://www.bohemiancoding.com/sketch -->
    <title>settings</title>
    <desc>Created with Sketch.</desc>
    <defs></defs>
    <g id="Page-1" stroke="none" stroke-width="1" fill="none" fill-rule="evenodd">
        <g id="edit-invoice" transform="translate(-160.000000, -424.000000)">
            <g id="leftnav" transform="translate(159.000000, 115.000000)">
                <g id="settings" transform="translate(1.000000, 309.000000)">
                    <g id="settings-tertiary" fill="#A0A1A2">
                        <path d="M19.5555556,0.000366666667 L2.44444444,0.000366666667 C1.09388889,0.000366666667 0,1.09547778 0,2.44481111 L0,19.5559222 C0,20.9064778 1.09388889,22.0003667 2.44444444,22.0003667 L19.5555556,22.0003667 C20.9048889,22.0003667 22,20.9064778 22,19.5559222 L22,2.44481111 C22,1.09547778 20.9048889,0.000366666667 19.5555556,0.000366666667 L19.5555556,0.000366666667 Z" id="Fill-40"></path>
                    </g>
                    <g id="settings-active" transform="translate(3.000000, 3.000000)" fill="#F8F9FB">
                        <path d="M15.3333333,9.33381111 L13.1455556,9.33381111 C13.0257778,9.79092222 12.8473333,10.2199222 12.6187778,10.6208111 L13.9998889,12.0019222 L12.0003333,14.0002556 L10.6192222,12.6191444 C10.2183333,12.8489222 9.79055556,13.0261444 9.33222222,13.1447 L9.33222222,15.3337 L6.66655556,15.3337 L6.66655556,13.1447 C6.20944444,13.0261444 5.78166667,12.8489222 5.38077778,12.6191444 L3.99966667,14.0002556 L1.99888889,12.0019222 L3.38122222,10.6208111 C3.15266667,10.2199222 2.97422222,9.79092222 2.85444444,9.33381111 L0.666666667,9.33381111 L0.666666667,6.66692222 L2.85444444,6.66692222 C2.97422222,6.20981111 3.15266667,5.78325556 3.38122222,5.38114444 L1.99888889,4.00003333 L3.99966667,2.00047778 L5.38077778,3.38158889 C5.78166667,3.15181111 6.20944444,2.97458889 6.66655556,2.85603333 L6.66655556,0.667033333 L9.33222222,0.667033333 L9.33222222,2.85603333 C9.79055556,2.97458889 10.2183333,3.15181111 10.6192222,3.38158889 L12.0003333,2.00047778 L13.9998889,4.00003333 L12.6187778,5.38114444 C12.8473333,5.78325556 13.0257778,6.20981111 13.1455556,6.66692222 L15.3333333,6.66692222 L15.3333333,9.33381111 Z" id="Combined-Shape"></path>
                    </g>
                    <g id="settings-secondary" transform="translate(8.000000, 8.000000)" fill="#A0A1A2">
                        <path d="M3,0.0667888889 C1.37933333,0.0667888889 0.0666666667,1.38067778 0.0666666667,3.00012222 C0.0666666667,4.62078889 1.37933333,5.93467778 3,5.93467778 C4.62066667,5.93467778 5.93333333,4.62078889 5.93333333,3.00012222 C5.93333333,1.38067778 4.62066667,0.0667888889 3,0.0667888889" id="Fill-39"></path>
                    </g>
                </g>
            </g>
        </g>
    </g>
</svg>