<?xml version="1.0" encoding="UTF-8"?>
<svg width="22px" height="22px" viewBox="0 0 22 22" version="1.1" xmlns="http://www.w3.org/2000/svg" xmlns:xlink="http://www.w3.org/1999/xlink">
    <!-- Generator: Sketch 49.3 (51167) - http://www.bohemiancoding.com/sketch -->
    <title>setting</title>
    <desc>Created with Sketch.</desc>
    <defs></defs>
    <g id="Page-1" stroke="none" stroke-width="1" fill="none" fill-rule="evenodd" fill-opacity="0.8">
        <g id="edit-invoice" transform="translate(-159.000000, -492.000000)" fill="#1F1F1F">
            <g id="leftnav" transform="translate(159.000000, 116.000000)">
                <g id="setting" transform="translate(0.000000, 376.000000)">
                    <path d="M11,8.06678889 C9.37933333,8.06678889 8.06666667,9.38067778 8.06666667,11.0001222 C8.06666667,12.6207889 9.37933333,13.9346778 11,13.9346778 C12.6206667,13.9346778 13.9333333,12.6207889 13.9333333,11.0001222 C13.9333333,9.38067778 12.6206667,8.06678889 11,8.06678889" id="Fill-39"></path>
                    <path d="M18.3333333,12.3338111 L16.1455556,12.3338111 C16.0257778,12.7909222 15.8473333,13.2199222 15.6187778,13.6208111 L16.9998889,15.0019222 L15.0003333,17.0002556 L13.6192222,15.6191444 C13.2183333,15.8489222 12.7905556,16.0261444 12.3322222,16.1447 L12.3322222,18.3337 L9.66655556,18.3337 L9.66655556,16.1447 C9.20944444,16.0261444 8.78166667,15.8489222 8.38077778,15.6191444 L6.99966667,17.0002556 L4.99888889,15.0019222 L6.38122222,13.6208111 C6.15266667,13.2199222 5.97422222,12.7909222 5.85444444,12.3338111 L3.66666667,12.3338111 L3.66666667,9.66692222 L5.85444444,9.66692222 C5.97422222,9.20981111 6.15266667,8.78325556 6.38122222,8.38114444 L4.99888889,7.00003333 L6.99966667,5.00047778 L8.38077778,6.38158889 C8.78166667,6.15181111 9.20944444,5.97458889 9.66655556,5.85603333 L9.66655556,3.66703333 L12.3322222,3.66703333 L12.3322222,5.85603333 C12.7905556,5.97458889 13.2183333,6.15181111 13.6192222,6.38158889 L15.0003333,5.00047778 L16.9998889,7.00003333 L15.6187778,8.38114444 C15.8473333,8.78325556 16.0257778,9.20981111 16.1455556,9.66692222 L18.3333333,9.66692222 L18.3333333,12.3338111 Z M19.5555556,0.000366666667 L2.44444444,0.000366666667 C1.09388889,0.000366666667 0,1.09547778 0,2.44481111 L0,19.5559222 C0,20.9064778 1.09388889,22.0003667 2.44444444,22.0003667 L19.5555556,22.0003667 C20.9048889,22.0003667 22,20.9064778 22,19.5559222 L22,2.44481111 C22,1.09547778 20.9048889,0.000366666667 19.5555556,0.000366666667 L19.5555556,0.000366666667 Z" id="Fill-40"></path>
                </g>
            </g>
        </g>
    </g>
</svg>