<?xml version="1.0" encoding="UTF-8"?>
<svg width="28px" height="28px" viewBox="0 0 28 28" version="1.1" xmlns="http://www.w3.org/2000/svg" xmlns:xlink="http://www.w3.org/1999/xlink">
    <!-- Generator: Sketch 49.3 (51167) - http://www.bohemiancoding.com/sketch -->
    <title>settings</title>
    <desc>Created with Sketch.</desc>
    <defs></defs>
    <g id="Page-1" stroke="none" stroke-width="1" fill="none" fill-rule="evenodd">
        <g id="edit-invoice" transform="translate(-101.000000, -266.000000)">
            <g id="leftnav" transform="translate(28.000000, 114.000000)">
                <g id="settings" transform="translate(73.000000, 152.000000)">
                    <g id="settings-tertiary" fill="#BBBBBB">
                        <path d="M24.8888889,0.000466666667 L3.11111111,0.000466666667 C1.39222222,0.000466666667 0,1.39424444 0,3.11157778 L0,24.8893556 C0,26.6082444 1.39222222,28.0004667 3.11111111,28.0004667 L24.8888889,28.0004667 C26.6062222,28.0004667 28,26.6082444 28,24.8893556 L28,3.11157778 C28,1.39424444 26.6062222,0.000466666667 24.8888889,0.000466666667 L24.8888889,0.000466666667 Z" id="Fill-40"></path>
                    </g>
                    <g id="settings-secondary" transform="translate(4.181818, 4.181818)" fill="#F8F9FB">
                        <path d="M19.1515152,11.5157596 L16.3670707,11.5157596 C16.2146263,12.0975374 15.9875152,12.6435374 15.6966263,13.1537596 L17.454404,14.9115374 L14.9095152,17.4548707 L13.1517374,15.6970929 C12.6415152,15.9895374 12.0970707,16.2150929 11.5137374,16.3659818 L11.5137374,19.1519818 L8.12107071,19.1519818 L8.12107071,16.3659818 C7.53929293,16.2150929 6.99484848,15.9895374 6.48462626,15.6970929 L4.72684848,17.4548707 L2.18040404,14.9115374 L3.93973737,13.1537596 C3.64884848,12.6435374 3.42173737,12.0975374 3.26929293,11.5157596 L0.484848485,11.5157596 L0.484848485,8.12153737 L3.26929293,8.12153737 C3.42173737,7.5397596 3.64884848,6.99687071 3.93973737,6.48509293 L2.18040404,4.72731515 L4.72684848,2.18242626 L6.48462626,3.94020404 C6.99484848,3.6477596 7.53929293,3.42220404 8.12107071,3.27131515 L8.12107071,0.485315152 L11.5137374,0.485315152 L11.5137374,3.27131515 C12.0970707,3.42220404 12.6415152,3.6477596 13.1517374,3.94020404 L14.9095152,2.18242626 L17.454404,4.72731515 L15.6966263,6.48509293 C15.9875152,6.99687071 16.2146263,7.5397596 16.3670707,8.12153737 L19.1515152,8.12153737 L19.1515152,11.5157596 Z" id="Combined-Shape"></path>
                    </g>
                    <g id="settings-primary" transform="translate(9.818182, 9.818182)" fill="#A0A1A2">
                        <path d="M4.18181818,0.448640404 C2.11915152,0.448640404 0.448484848,2.12086263 0.448484848,4.18197374 C0.448484848,6.2446404 2.11915152,7.91686263 4.18181818,7.91686263 C6.24448485,7.91686263 7.91515152,6.2446404 7.91515152,4.18197374 C7.91515152,2.12086263 6.24448485,0.448640404 4.18181818,0.448640404" id="Fill-39"></path>
                    </g>
                </g>
            </g>
        </g>
    </g>
</svg>