<?xml version="1.0" encoding="UTF-8"?>
<svg width="28px" height="28px" viewBox="0 0 28 28" version="1.1" xmlns="http://www.w3.org/2000/svg" xmlns:xlink="http://www.w3.org/1999/xlink">
    <!-- Generator: Sketch 49.3 (51167) - http://www.bohemiancoding.com/sketch -->
    <title>settings</title>
    <desc>Created with Sketch.</desc>
    <defs></defs>
    <g id="Page-1" stroke="none" stroke-width="1" fill="none" fill-rule="evenodd">
        <g id="edit-invoice" transform="translate(-100.000000, -271.000000)">
            <g id="leftnav" transform="translate(28.000000, 114.000000)">
                <g id="settings" transform="translate(72.000000, 157.000000)">
                    <g id="settings-tertiary" fill="#A0A1A2">
                        <path d="M24.8888889,0.000466666667 L3.11111111,0.000466666667 C1.39222222,0.000466666667 0,1.39424444 0,3.11157778 L0,24.8893556 C0,26.6082444 1.39222222,28.0004667 3.11111111,28.0004667 L24.8888889,28.0004667 C26.6062222,28.0004667 28,26.6082444 28,24.8893556 L28,3.11157778 C28,1.39424444 26.6062222,0.000466666667 24.8888889,0.000466666667 L24.8888889,0.000466666667 Z" id="Fill-40"></path>
                    </g>
                    <g id="settings-primary" transform="translate(3.818182, 3.818182)" fill="#F8F9FB">
                        <path d="M19.5151515,11.879396 L16.7307071,11.879396 C16.5782626,12.4611737 16.3511515,13.0071737 16.0602626,13.517396 L17.8180404,15.2751737 L15.2731515,17.8185071 L13.5153737,16.0607293 C13.0051515,16.3531737 12.4607071,16.5787293 11.8773737,16.7296182 L11.8773737,19.5156182 L8.48470707,19.5156182 L8.48470707,16.7296182 C7.90292929,16.5787293 7.35848485,16.3531737 6.84826263,16.0607293 L5.09048485,17.8185071 L2.5440404,15.2751737 L4.30337374,13.517396 C4.01248485,13.0071737 3.78537374,12.4611737 3.63292929,11.879396 L0.848484848,11.879396 L0.848484848,8.48517374 L3.63292929,8.48517374 C3.78537374,7.90339596 4.01248485,7.36050707 4.30337374,6.84872929 L2.5440404,5.09095152 L5.09048485,2.54606263 L6.84826263,4.3038404 C7.35848485,4.01139596 7.90292929,3.7858404 8.48470707,3.63495152 L8.48470707,0.848951515 L11.8773737,0.848951515 L11.8773737,3.63495152 C12.4607071,3.7858404 13.0051515,4.01139596 13.5153737,4.3038404 L15.2731515,2.54606263 L17.8180404,5.09095152 L16.0602626,6.84872929 C16.3511515,7.36050707 16.5782626,7.90339596 16.7307071,8.48517374 L19.5151515,8.48517374 L19.5151515,11.879396 Z" id="Combined-Shape"></path>
                    </g>
                    <g id="settings-secondary" transform="translate(10.181818, 10.181818)" fill="#A0A1A2">
                        <path d="M3.81818182,0.0850040404 C1.75551515,0.0850040404 0.0848484848,1.75722626 0.0848484848,3.81833737 C0.0848484848,5.88100404 1.75551515,7.55322626 3.81818182,7.55322626 C5.88084848,7.55322626 7.55151515,5.88100404 7.55151515,3.81833737 C7.55151515,1.75722626 5.88084848,0.0850040404 3.81818182,0.0850040404" id="Fill-39"></path>
                    </g>
                </g>
            </g>
        </g>
    </g>
</svg>