<?xml version="1.0" encoding="UTF-8"?>
<svg width="24px" height="25px" viewBox="0 0 24 25" version="1.1" xmlns="http://www.w3.org/2000/svg" xmlns:xlink="http://www.w3.org/1999/xlink">
    <!-- Generator: Sketch 49.3 (51167) - http://www.bohemiancoding.com/sketch -->
    <title>support</title>
    <desc>Created with Sketch.</desc>
    <defs></defs>
    <g id="Page-1" stroke="none" stroke-width="1" fill="none" fill-rule="evenodd">
        <g id="edit-invoice" transform="translate(-166.000000, -225.000000)" fill="#A0A1A2">
            <g id="leftnav" transform="translate(91.000000, 118.000000)">
                <g id="support" transform="translate(75.000000, 107.000000)">
                    <g id="support-tertiary" transform="translate(0.000000, 15.000000)">
                        <path d="M13.7142857,7.21371431 C13.7142857,3.73176695 10.6442383,0.909090909 6.85714286,0.909090909 C3.07004743,0.909090909 0,3.73176695 0,7.21371431 C0,10.6956617 13.7142857,10.6956617 13.7142857,7.21371431 Z" id="Oval-Copy"></path>
                    </g>
                    <g id="support-secondary" transform="translate(2.000000, 5.000000)">
                        <ellipse id="Oval" cx="4.85714286" cy="5.13986014" rx="4.57142857" ry="4.45804196"></ellipse>
                    </g>
                    <g id="support-primary" transform="translate(9.142857, 0.000000)">
                        <path d="M4.96028571,15.0725981 C4.60514286,14.889282 4.38095238,14.5128874 4.38095238,14.101782 L4.38095238,11.9323605 L3.33333333,11.9323605 L3.33333333,9.76293905 L5.42857143,9.76293905 C6.00685714,9.76293905 6.47619048,10.2488895 6.47619048,10.8476498 L6.47619048,11.9323605 L8.99047619,9.9798812 C9.17171429,9.8388688 9.3927619,9.76293905 9.61904762,9.76293905 L12.7619048,9.76293905 L12.7619048,2.16996384 L2.28571429,2.16996384 L2.28571429,5.42409607 L0.19047619,5.42409607 L0.19047619,2.16996384 C0.19047619,0.972443182 1.13019048,0.000542355372 2.28571429,0.000542355372 L12.7619048,0.000542355372 C13.9174286,0.000542355372 14.8571429,0.972443182 14.8571429,2.16996384 L14.8571429,9.76293905 C14.8571429,10.959375 13.9174286,11.9323605 12.7619048,11.9323605 L9.96790476,11.9323605 L6.05714286,14.9695506 C5.87171429,15.1127324 5.65066667,15.1864928 5.42857143,15.1864928 C5.26933333,15.1864928 5.108,15.1485279 4.96028571,15.0725981 Z" id="Fill-81"></path>
                    </g>
                </g>
            </g>
        </g>
    </g>
</svg>