<?xml version="1.0" encoding="UTF-8"?>
<svg width="22px" height="21px" viewBox="0 0 22 21" version="1.1" xmlns="http://www.w3.org/2000/svg" xmlns:xlink="http://www.w3.org/1999/xlink">
    <!-- Generator: Sketch 49.3 (51167) - http://www.bohemiancoding.com/sketch -->
    <title>support</title>
    <desc>Created with Sketch.</desc>
    <defs></defs>
    <g id="Page-1" stroke="none" stroke-width="1" fill="none" fill-rule="evenodd" fill-opacity="0.8">
        <g id="edit-invoice" transform="translate(-160.000000, -367.000000)" fill="#1F1F1F">
            <g id="leftnav" transform="translate(159.000000, 116.000000)">
                <g id="support" transform="translate(1.000000, 251.000000)">
                    <path d="M13.75,13.3641136 C13.6106667,13.3641136 13.4695,13.3307045 13.34025,13.2638864 C13.0295,13.1025682 12.8333333,12.7713409 12.8333333,12.4095682 L12.8333333,10.5004773 L11.9166667,10.5004773 L11.9166667,8.59138636 L13.75,8.59138636 C14.256,8.59138636 14.6666667,9.01902273 14.6666667,9.54593182 L14.6666667,10.5004773 L16.8666667,8.78229545 C17.02525,8.65820455 17.2186667,8.59138636 17.4166667,8.59138636 L20.1666667,8.59138636 L20.1666667,1.90956818 L11,1.90956818 L11,4.77320455 L9.16666667,4.77320455 L9.16666667,1.90956818 C9.16666667,0.85575 9.98891667,0.000477272727 11,0.000477272727 L20.1666667,0.000477272727 C21.17775,0.000477272727 22,0.85575 22,1.90956818 L22,8.59138636 C22,9.64425 21.17775,10.5004773 20.1666667,10.5004773 L17.7219167,10.5004773 L14.3,13.1732045 C14.13775,13.2992045 13.9443333,13.3641136 13.75,13.3641136" id="Fill-81"></path>
                    <path d="M7.33333333,13.3641136 C9.3555,13.3641136 11,11.6516591 11,9.54593182 C11,7.44020455 9.3555,5.72775 7.33333333,5.72775 C5.31116667,5.72775 3.66666667,7.44020455 3.66666667,9.54593182 C3.66666667,11.6516591 5.31116667,13.3641136 7.33333333,13.3641136" id="Fill-82"></path>
                    <path d="M7.33333333,14.3186591 C3.01583333,14.3186591 0,16.6735227 0,20.0459318 L0,21.0004773 L14.6666667,21.0004773 L14.6666667,20.0459318 C14.6666667,16.6735227 11.6508333,14.3186591 7.33333333,14.3186591" id="Fill-83"></path>
                </g>
            </g>
        </g>
    </g>
</svg>