<?xml version="1.0" encoding="UTF-8"?>
<svg width="30px" height="31px" viewBox="0 0 30 31" version="1.1" xmlns="http://www.w3.org/2000/svg" xmlns:xlink="http://www.w3.org/1999/xlink">
    <!-- Generator: Sketch 49.3 (51167) - http://www.bohemiancoding.com/sketch -->
    <title>support</title>
    <desc>Created with Sketch.</desc>
    <defs></defs>
    <g id="Page-1" stroke="none" stroke-width="1" fill="none" fill-rule="evenodd">
        <g id="edit-invoice" transform="translate(-104.000000, -231.000000)" fill="#A0A1A2">
            <g id="leftnav" transform="translate(28.000000, 114.000000)">
                <g id="support" transform="translate(76.000000, 117.000000)">
                    <g id="support-tertiary" transform="translate(0.000000, 18.600000)">
                        <path d="M17.0057143,8.94500574 C17.0057143,4.62739102 13.1988555,1.12727273 8.50285714,1.12727273 C3.80685881,1.12727273 0,4.62739102 0,8.94500574 C0,13.2626205 17.0057143,13.2626205 17.0057143,8.94500574 Z" id="Oval-Copy"></path>
                    </g>
                    <g id="support-secondary" transform="translate(2.480000, 6.200000)">
                        <ellipse id="Oval" cx="6.02285714" cy="6.37342657" rx="5.66857143" ry="5.52797203"></ellipse>
                    </g>
                    <g id="support-primary" transform="translate(11.337143, 0.000000)">
                        <path d="M6.15075429,18.6900217 C5.71037714,18.4627097 5.43238095,17.9959804 5.43238095,17.4862097 L5.43238095,14.7961271 L4.13333333,14.7961271 L4.13333333,12.1060444 L6.73142857,12.1060444 C7.44850286,12.1060444 8.03047619,12.7086229 8.03047619,13.4510857 L8.03047619,14.7961271 L11.1481905,12.3750527 C11.3729257,12.2001973 11.6470248,12.1060444 11.927619,12.1060444 L15.8247619,12.1060444 L15.8247619,2.69075517 L2.83428571,2.69075517 L2.83428571,6.72587913 L0.236190476,6.72587913 L0.236190476,2.69075517 C0.236190476,1.20582955 1.40143619,0.000672520661 2.83428571,0.000672520661 L15.8247619,0.000672520661 C17.2576114,0.000672520661 18.4228571,1.20582955 18.4228571,2.69075517 L18.4228571,12.1060444 C18.4228571,13.589625 17.2576114,14.7961271 15.8247619,14.7961271 L12.3602019,14.7961271 L7.51085714,18.5622428 C7.28092571,18.7397882 7.00682667,18.831251 6.73142857,18.831251 C6.53397333,18.831251 6.33392,18.7841746 6.15075429,18.6900217 Z" id="Fill-81"></path>
                    </g>
                </g>
            </g>
        </g>
    </g>
</svg>