<?xml version="1.0" encoding="UTF-8"?>
<svg width="30px" height="22px" viewBox="0 0 30 22" version="1.1" xmlns="http://www.w3.org/2000/svg" xmlns:xlink="http://www.w3.org/1999/xlink">
    <!-- Generator: Sketch 50.2 (55047) - http://www.bohemiancoding.com/sketch -->
    <title>team</title>
    <desc>Created with Sketch.</desc>
    <defs></defs>
    <g id="Page-1" stroke="none" stroke-width="1" fill="none" fill-rule="evenodd">
        <g id="dashboard-copy" transform="translate(-121.000000, -144.000000)">
            <g id="team" transform="translate(121.000000, 144.000000)">
                <g id="team-secondary" fill="#BBBBBB">
                    <path d="M10.4005263,11.6101333 C9.42157895,10.0056 7.65,8.92026667 5.60526316,8.92026667 C2.50894737,8.92026667 0,11.3813333 0,14.4188 C0,16.0893333 3.39315789,16.8358667 6.44684211,16.6672 C7.05473684,14.5302667 8.49157895,12.7321333 10.4005263,11.6101333" id="Fill-1"></path>
                    <path d="M9.12773684,2.64044 C8.62563158,1.10924 7.24721053,0.00044 5.60668421,0.00044 C3.54142105,0.00044 1.86931579,1.74137333 1.86931579,3.88857333 C1.86931579,6.03577333 3.54142105,7.77524 5.60668421,7.77524 C6.84773684,7.77524 7.94036842,7.13870667 8.61931579,6.16924 C8.583,5.89057333 8.53563158,5.61630667 8.53563158,5.32884 C8.53563158,4.36817333 8.75668421,3.46177333 9.12773684,2.64044" id="Fill-4"></path>
                    <path d="M24.2895789,8.91953333 C22.2448421,8.91953333 20.4732632,10.0048667 19.4943158,11.6094 C21.4048421,12.7314 22.8416842,14.531 23.4495789,16.6664667 C26.5016842,16.8351333 29.8948421,16.0886 29.8948421,14.4180667 C29.8948421,11.3806 27.3843158,8.91953333 24.2895789,8.91953333" id="Fill-7"></path>
                    <path d="M21.2758421,6.1688 C21.9547895,7.13826667 23.0474211,7.77626667 24.2900526,7.77626667 C26.3537368,7.77626667 28.0258421,6.03533333 28.0258421,3.88813333 C28.0258421,1.74093333 26.3537368,0 24.2900526,0 C22.6479474,0 21.2695263,1.1088 20.7674211,2.64 C21.1400526,3.46133333 21.3595263,4.36773333 21.3595263,5.32986667 C21.3595263,5.61733333 21.3121579,5.8916 21.2758421,6.1688" id="Fill-10"></path>
                </g>
                <g id="team-primary" transform="translate(7.500000, 0.000000)" fill="#979797">
                    <path d="M14.2146316,16.45556 C13.6667368,15.0284933 12.6814737,13.8184933 11.3977895,12.99716 C10.2609474,12.2696933 8.90778947,11.8370267 7.44726316,11.8370267 C5.98831579,11.8370267 4.63515789,12.2696933 3.49831579,12.99716 C2.21463158,13.8184933 1.22778947,15.0284933 0.681473684,16.45556 C0.381473684,17.23436 0.198315789,18.0688933 0.198315789,18.9488933 C0.198315789,20.91276 3.822,21.89396 7.44726316,21.89396 C11.0725263,21.89396 14.6977895,20.91276 14.6977895,18.9488933 C14.6977895,18.0688933 14.5130526,17.23436 14.2146316,16.45556" id="Fill-13"></path>
                    <path d="M7.44773684,0.300813333 C4.77773684,0.300813333 2.61457895,2.55214667 2.61457895,5.33001333 C2.61457895,8.10641333 4.77773684,10.3577467 7.44773684,10.3577467 C10.1161579,10.3577467 12.2808947,8.10641333 12.2808947,5.33001333 C12.2808947,2.55214667 10.1161579,0.300813333 7.44773684,0.300813333" id="Fill-15"></path>
                </g>
            </g>
        </g>
    </g>
</svg>