<?xml version="1.0" encoding="UTF-8"?>
<svg width="20px" height="20px" viewBox="0 0 20 20" version="1.1" xmlns="http://www.w3.org/2000/svg" xmlns:xlink="http://www.w3.org/1999/xlink">
    <!-- Generator: Sketch 49.1 (51147) - http://www.bohemiancoding.com/sketch -->
    <title>github</title>
    <desc>Created with Sketch.</desc>
    <defs>
        <path d="M8.68951613,17.7654798 C8.68951613,17.8436048 8.59677419,17.9061048 8.47983871,17.9061048 C8.34677419,17.9178235 8.25403226,17.8553235 8.25403226,17.7654798 C8.25403226,17.6873548 8.34677419,17.6248548 8.46370968,17.6248548 C8.58467742,17.613136 8.68951613,17.675636 8.68951613,17.7654798 Z M7.43548387,17.5896985 C7.40725806,17.6678235 7.48790323,17.7576673 7.60887097,17.7811048 C7.71370968,17.8201673 7.83467742,17.7811048 7.85887097,17.7029798 C7.88306452,17.6248548 7.80645161,17.535011 7.68548387,17.4998548 C7.58064516,17.472511 7.46370968,17.5115735 7.43548387,17.5896985 Z M9.21774194,17.5232923 C9.10080645,17.550636 9.02016129,17.6248548 9.03225806,17.7146985 C9.04435484,17.7928235 9.14919355,17.8436048 9.27016129,17.816261 C9.38709677,17.7889173 9.46774194,17.7146985 9.45564516,17.6365735 C9.44354839,17.5623548 9.33467742,17.5115735 9.21774194,17.5232923 Z M11.8709677,2.55454227 C6.27822581,2.55454227 2,6.66782352 2,12.0857923 C2,16.4178235 4.81451613,20.1248548 8.83467742,21.4295423 C9.35080645,21.519386 9.53225806,21.2107923 9.53225806,20.956886 C9.53225806,20.7146985 9.52016129,19.378761 9.52016129,18.5584485 C9.52016129,18.5584485 6.69758065,19.144386 6.10483871,17.394386 C6.10483871,17.394386 5.64516129,16.2576673 4.98387097,15.9646985 C4.98387097,15.9646985 4.06048387,15.3514173 5.0483871,15.363136 C5.0483871,15.363136 6.05241935,15.441261 6.60483871,16.3709485 C7.48790323,17.878761 8.96774194,17.4451673 9.54435484,17.1873548 C9.63709677,16.5623548 9.89919355,16.128761 10.1895161,15.8709485 C7.93548387,15.628761 5.66129032,15.3123548 5.66129032,11.5545423 C5.66129032,10.4803235 5.96774194,9.94126102 6.61290323,9.25376102 C6.50806452,8.99985477 6.16532258,7.95297977 6.71774194,6.60141727 C7.56048387,6.34751102 9.5,7.65610477 9.5,7.65610477 C10.3064516,7.43735477 11.1733871,7.32407352 12.0322581,7.32407352 C12.891129,7.32407352 13.7580645,7.43735477 14.5645161,7.65610477 C14.5645161,7.65610477 16.5040323,6.34360477 17.3467742,6.60141727 C17.8991935,7.95688602 17.5564516,8.99985477 17.4516129,9.25376102 C18.0967742,9.94516727 18.4919355,10.4842298 18.4919355,11.5545423 C18.4919355,15.3240735 16.1169355,15.6248548 13.8629032,15.8709485 C14.233871,16.1795423 14.5483871,16.7654798 14.5483871,17.6834485 C14.5483871,18.9998548 14.5362903,20.628761 14.5362903,20.9490735 C14.5362903,21.2029798 14.7217742,21.5115735 15.233871,21.4217298 C19.266129,20.1248548 22,16.4178235 22,12.0857923 C22,6.66782352 17.4637097,2.55454227 11.8709677,2.55454227 Z M5.91935484,16.0271985 C5.86693548,16.066261 5.87903226,16.1561048 5.94758065,16.2303235 C6.01209677,16.2928235 6.10483871,16.3201673 6.15725806,16.269386 C6.20967742,16.2303235 6.19758065,16.1404798 6.12903226,16.066261 C6.06451613,16.003761 5.97177419,15.9764173 5.91935484,16.0271985 Z M5.48387097,15.7107923 C5.45564516,15.7615735 5.49596774,15.8240735 5.5766129,15.863136 C5.64112903,15.9021985 5.72177419,15.8904798 5.75,15.8357923 C5.77822581,15.785011 5.73790323,15.722511 5.65725806,15.6834485 C5.5766129,15.660011 5.51209677,15.6717298 5.48387097,15.7107923 Z M6.79032258,17.1014173 C6.72580645,17.1521985 6.75,17.269386 6.84274194,17.3436048 C6.93548387,17.4334485 7.05241935,17.4451673 7.10483871,17.3826673 C7.15725806,17.331886 7.13306452,17.2146985 7.05241935,17.1404798 C6.96370968,17.050636 6.84274194,17.0389173 6.79032258,17.1014173 Z M6.33064516,16.5271985 C6.26612903,16.566261 6.26612903,16.6678235 6.33064516,16.7576673 C6.39516129,16.847511 6.50403226,16.8865735 6.55645161,16.847511 C6.62096774,16.7967298 6.62096774,16.6951673 6.55645161,16.6053235 C6.5,16.5154798 6.39516129,16.4764173 6.33064516,16.5271985 Z" id="path-1"></path>
    </defs>
    <g id="Symbols" stroke="none" stroke-width="1" fill="none" fill-rule="evenodd">
        <g id="Icons/Brands/github" transform="translate(-2.000000, -2.000000)">
            <mask id="mask-2" fill="white">
                <use xlink:href="#path-1"></use>
            </mask>
            <use id="github" fill="#FFFFFF" fill-rule="nonzero" xlink:href="#path-1"></use>
        </g>
    </g>
</svg>