<?xml version="1.0" encoding="UTF-8"?>
<svg width="46px" height="42px" viewBox="0 0 46 42" version="1.1" xmlns="http://www.w3.org/2000/svg" xmlns:xlink="http://www.w3.org/1999/xlink">
    <!-- Generator: Sketch 50.2 (55047) - http://www.bohemiancoding.com/sketch -->
    <title>invoices</title>
    <desc>Created with Sketch.</desc>
    <defs></defs>
    <g id="Page-1" stroke="none" stroke-width="1" fill="none" fill-rule="evenodd">
        <g id="dashboard" transform="translate(-406.000000, -410.000000)" fill="#00BCAD">
            <g id="buttons" transform="translate(383.000000, 381.000000)">
                <g id="view-my-invoices">
                    <g id="invoices" transform="translate(23.000000, 29.000000)">
                        <path d="M23.5,19 L32,14.0038388 C31.304403,13.3877159 30.3913094,13 29.3782849,13 L17.6217151,13 C16.6086906,13 15.695597,13.3877159 15,14.0038388 L23.5,19 Z" id="Fill-64"></path>
                        <path d="M23.2334,22.4174567 C23.0073,22.5567179 22.7546,22.6253678 22.5,22.6253678 C22.2454,22.6253678 21.9927,22.5567179 21.7685,22.4174567 L13.0228,17 C13.019,17.0804184 13,17.1529912 13,17.2314482 L13,25.0771494 C13,27.2445244 14.7024,29 16.8,29 L28.2,29 C30.2995,29 32,27.2445244 32,25.0771494 L32,17.2314482 C32,17.1529912 31.9829,17.0804184 31.9791,17 L23.2334,22.4174567 Z" id="Fill-65"></path>
                        <path d="M40.0627822,24.8181818 C38.3015476,32.4583636 31.3935727,38.1818182 23.1487571,38.1818182 C15.3264062,38.1818182 8.7020036,33.0349091 6.53759481,25.9846364 L11.5743785,21 L0,21 L0,32.4545455 L3.52439826,28.9666364 C6.70156517,36.6049091 14.2982156,42 23.1487571,42 C33.5309746,42 42.1789644,34.5774545 44,24.8181818 L40.0627822,24.8181818 Z" id="Fill-66"></path>
                        <path d="M42.4756017,13.0333636 C39.2984348,5.397 31.7017844,0 22.8512429,0 C12.4690254,0 3.82103556,7.42254545 2,17.1818182 L5.93721776,17.1818182 C7.69845237,9.53972727 14.6064273,3.81818182 22.8512429,3.81818182 C30.6735938,3.81818182 37.2979964,8.96509091 39.4624052,16.0153636 L34.4256215,21 L46,21 L46,9.54545455 L42.4756017,13.0333636 Z" id="Fill-67"></path>
                    </g>
                </g>
            </g>
        </g>
    </g>
</svg>