<?xml version="1.0" encoding="UTF-8"?>
<svg width="246px" height="32px" viewBox="0 0 246 32" version="1.1" xmlns="http://www.w3.org/2000/svg" xmlns:xlink="http://www.w3.org/1999/xlink">
    <!-- Generator: Sketch 49.3 (51167) - http://www.bohemiancoding.com/sketch -->
    <title>logo</title>
    <desc>Created with Sketch.</desc>
    <defs></defs>
    <g id="Page-1" stroke="none" stroke-width="1" fill="none" fill-rule="evenodd">
        <g id="view-invoices" transform="translate(-100.000000, -41.000000)" fill="#006F8E">
            <g id="header" transform="translate(100.000000, 29.000000)">
                <g id="logo" transform="translate(0.000000, 12.000000)">
                    <path d="M148.278658,0.322780984 C148.958537,0.322780984 149.392126,0.63149665 149.579439,1.24893725 C149.579439,1.4986885 149.714719,1.62356225 149.985283,1.62356225 C152.455046,2.17856503 154.841522,3.06655616 157.144783,4.28756228 C159.059543,5.24494208 160.016908,6.53183548 160.016908,8.14828108 L160.016908,8.31478109 C160.016908,10.1532278 159.128917,11.8112737 157.352908,13.2889687 C155.993151,14.2949112 154.494666,15.1690275 152.857408,15.9113437 L149.402533,16.6918124 C149.402533,18.9395737 149.510063,20.5872135 149.725127,21.6347813 L149.725127,22.0198125 C149.725127,23.1298181 149.41988,23.7992801 148.809377,24.0282188 C147.671621,24.0282188 146.974409,22.5713583 146.717721,19.6575937 C146.717721,18.2492742 146.641409,17.4306573 146.488783,17.2017187 L146.041314,17.2329375 C145.854001,17.0872492 145.697909,16.7160967 145.573033,16.1194687 L145.458564,15.9945937 L145.458564,15.9113437 C145.458564,15.8072807 145.843592,15.4708153 146.613658,14.9019374 C146.530408,13.0426781 146.461033,10.3925796 146.405533,6.95156232 L146.384721,4.36040604 C145.045776,4.04127944 144.376314,3.77071964 144.376314,3.54871853 L144.376314,3.28856227 C144.660753,2.39362029 144.851533,1.946156 144.948658,1.946156 L146.447158,1.49868725 C146.759347,0.714745819 147.290061,0.322780984 148.039314,0.322780984 L148.278658,0.322780984 Z M149.319283,4.28756228 C149.305408,6.34801011 149.298471,8.09624265 149.298471,9.53231235 C149.298471,12.0228873 149.32622,13.5352472 149.381721,14.0694374 C151.671107,13.4311842 153.370778,12.7790657 154.480783,12.1130624 C155.771165,11.329121 156.638344,10.2503505 157.082346,8.87671859 C157.123971,8.74490543 157.144783,8.5575948 157.144783,8.31478109 L157.144783,8.27315609 C157.144783,6.7399609 154.536309,5.41144292 149.319283,4.28756228 Z M169.47619,9.65718735 C170.017317,9.65718735 170.381533,10.1150578 170.568846,11.0308124 C170.568846,11.5095023 170.860218,13.0634868 171.442971,15.6928124 C171.852286,17.1566323 172.448905,18.3914949 173.232846,19.3974375 C173.697661,20.0981285 173.930065,20.6392481 173.930065,21.0208125 L173.930065,21.2809688 C173.930065,21.6070329 173.725411,21.7700625 173.316096,21.7700625 C172.920657,22.0267513 172.650097,22.1550938 172.504408,22.1550938 C171.734342,21.8706548 171.044068,21.2566922 170.433565,20.3131875 C170.121376,19.7165595 169.555975,18.4123225 168.737346,16.4004374 L168.47719,16.0778437 C167.471247,17.6249139 166.597131,18.8250895 165.854815,19.6784062 C164.945998,20.6288485 163.901914,21.1040625 162.722533,21.1040625 C161.598653,21.1040625 160.866754,20.5213183 160.526815,19.3558125 L160.48519,18.6585937 C160.48519,17.0907109 161.501523,15.1447615 163.534221,12.8206874 C164.796852,11.7939322 166.253713,10.919816 167.904846,10.1983124 C168.355786,9.83756055 168.810187,9.65718735 169.268065,9.65718735 L169.47619,9.65718735 Z M163.492596,18.2735625 L163.534221,18.2735625 C164.200224,18.2735625 164.873155,17.6908183 165.553033,16.5253124 C166.808727,14.9782422 167.436565,13.7711292 167.436565,12.9039374 L167.39494,12.8623124 L167.301283,12.8623124 C166.808718,13.0149382 165.920727,13.7537745 164.637283,15.0788437 C163.846404,16.0847862 163.450971,17.135807 163.450971,18.2319375 L163.492596,18.2735625 Z M182.327909,7.19090607 C182.723348,7.19090607 183.04247,7.35393569 183.285284,7.67999983 C183.555847,12.792963 183.691127,16.4871448 183.691127,18.7626562 L183.691127,19.08525 L184.159409,25.6724063 C184.145534,28.4127325 183.066763,30.2442143 180.923065,31.1669064 C180.423562,31.3195321 179.948348,31.3958439 179.497409,31.3958439 C177.7214,31.3958439 175.928074,30.3448231 174.117377,28.2427501 C173.680313,27.6738722 173.461783,27.1362214 173.461783,26.6297813 C173.787848,26.2898421 174.134719,26.1198751 174.502408,26.1198751 C174.772972,26.1198751 175.341842,26.4528717 176.209034,27.1188751 C176.326972,27.2160006 176.576719,27.2715 176.958284,27.2853751 L178.956284,28.5029063 C179.212972,28.6000318 179.448845,28.6485938 179.663909,28.6485938 L179.747159,28.6485938 C180.61435,28.6485938 181.18322,27.8750703 181.453784,26.3280001 C181.592534,25.5301836 181.661909,24.4063198 181.661909,22.956375 C181.661909,20.5837381 181.401755,18.0411698 180.88144,15.3285937 C180.395812,15.8558463 179.670851,16.9138045 178.706534,18.5025 C177.839342,19.4460047 177.214973,19.91775 176.833409,19.91775 C176.403281,20.112001 175.820537,20.209125 175.085159,20.209125 L174.908252,20.209125 C174.471188,20.209125 174.05841,19.6263808 173.669908,18.460875 C173.531158,17.8087467 173.461783,17.1288785 173.461783,16.4212499 C173.461783,14.7146164 173.79478,12.6750118 174.460783,10.3023749 C174.786848,9.63637152 175.151063,9.30337485 175.55344,9.30337485 L175.824002,9.30337485 C176.136191,9.30337485 176.500406,9.48721676 176.916659,9.85490611 L176.916659,9.95896861 C176.916659,10.6249719 176.639161,12.0610201 176.084159,14.2671562 C175.91072,14.8776592 175.824002,15.5956833 175.824002,16.4212499 L175.865627,17.1184687 L176.000909,17.1184687 C176.368598,17.1184687 176.906249,16.6779418 177.613877,15.7968749 C177.74569,15.7968749 177.919126,15.491628 178.13419,14.8811249 C179.65351,12.0436732 180.413159,10.2815658 180.413159,9.59474985 C180.524159,9.1854353 180.579659,8.73797102 180.579659,8.25234359 L180.579659,8.16909358 C180.877973,7.9124048 181.15547,7.58634555 181.412159,7.19090607 L182.327909,7.19090607 Z M194.815409,11.5199061 C195.738101,11.6586568 196.234127,11.8494362 196.303503,12.0922499 C196.76138,12.8276286 197.309437,14.1700214 197.94769,16.1194687 C198.440255,17.6942891 198.991781,19.1788993 199.602284,20.5733437 C199.602284,20.6843443 199.432317,20.8820611 199.092378,21.1665 C199.092378,21.3121882 199.043816,21.3850313 198.94669,21.3850313 C197.593871,21.3850313 196.692005,20.6461949 196.241065,19.1685 C195.783188,17.5451168 195.391223,16.4663464 195.065159,15.9321562 L195.023534,15.9321562 C193.747027,19.5951745 192.817412,21.4266563 192.234659,21.4266563 L191.87044,21.4266563 C190.815935,21.4266563 190.205441,20.3409483 190.03894,18.1695 C189.865502,16.4489913 189.723284,15.5887499 189.612284,15.5887499 C189.258469,15.9703143 188.85263,16.9727731 188.394752,18.5961562 C187.916063,20.4276654 187.284756,21.3434063 186.500815,21.3434063 C186.174751,21.3434063 185.810536,21.2011889 185.408159,20.91675 L185.46019,20.6982187 L185.46019,20.5109062 L185.200034,20.209125 C185.373472,19.6679973 185.46019,19.1303464 185.46019,18.5961562 L185.366534,15.7968749 L185.408159,15.1412812 C185.706473,15.1412812 185.855627,14.8845962 185.855627,14.3712187 L185.855627,14.1422812 C185.855627,14.0659683 186.084563,13.9515007 186.54244,13.7988749 C186.611815,13.6254365 186.674252,13.5387187 186.729752,13.5387187 L187.29169,13.7572499 C187.40269,13.7433748 187.884842,13.2438798 188.738159,12.2587499 C189.091973,11.974311 189.296627,11.8320936 189.352127,11.8320936 C190.704947,11.8320936 191.638031,12.7200848 192.151409,14.4960937 L192.317909,14.9227499 L192.401159,14.9227499 C192.630097,14.4856852 192.921469,13.7468489 193.275284,12.7062186 C193.462597,12.3385293 193.67072,12.0610321 193.899659,11.8737186 L194.274284,11.9257499 L194.596878,11.5199061 L194.815409,11.5199061 Z M204.52444,9.91734361 C205.974385,9.91734361 207.153748,10.8608342 208.062565,12.7478436 C208.229066,13.3444716 208.312315,13.8092795 208.312315,14.1422812 C208.312315,15.5297881 207.233545,16.6501832 205.075971,17.5035 L205.075971,17.545125 C205.658724,18.5094423 206.404498,18.9915937 207.313315,18.9915937 C208.575947,18.9915937 209.918339,17.9856663 211.340534,15.9737812 C212.221601,14.9886512 212.891063,14.4960937 213.34894,14.4960937 L213.43219,14.4960937 L213.51544,14.5897499 L213.51544,15.0164062 L213.473815,15.1829062 C213.48769,15.2522815 213.54319,15.3008435 213.640315,15.3285937 C213.827629,15.3285937 213.949034,15.1794389 214.004534,14.8811249 L214.087784,14.8811249 L214.087784,14.9227499 C214.087784,15.3945023 213.678476,16.1714945 212.859846,17.25375 C212.714158,17.5035012 212.613566,17.7775297 212.558065,18.0758437 C212.176501,18.1660317 211.985721,18.3221239 211.985721,18.544125 C211.20178,19.8275689 210.050167,20.7329036 208.530846,21.2601563 C208.031344,21.3711568 207.625504,21.4266563 207.313315,21.4266563 L206.886659,21.4266563 C204.840086,21.4266563 202.828231,19.9489835 200.851034,16.9935937 L200.642909,13.6219687 L200.642909,13.3097812 C200.642909,11.9292117 201.090373,11.0689703 201.985315,10.7290311 C202.949632,10.1879034 203.795999,9.91734361 204.52444,9.91734361 Z M203.244471,14.0069999 C203.244471,14.8325665 203.476875,15.4153107 203.94169,15.7552499 C204.253879,15.7552499 204.739499,15.5089711 205.398565,15.0164062 C205.509566,14.6695294 205.565065,14.3920322 205.565065,14.1839062 C205.565065,13.3444645 205.190444,12.7617203 204.44119,12.4356561 L204.118596,12.3940311 C203.688469,12.3940311 203.473409,12.529311 203.473409,12.7998749 C203.320783,13.0773763 203.244471,13.4797473 203.244471,14.0069999 Z M219.696753,8.87671859 C220.591695,9.09871971 221.039159,9.24787447 221.039159,9.32418735 C221.406848,10.1775041 221.739845,11.2354623 222.038159,12.4980936 C222.607037,16.3900507 223.047564,18.9395564 223.359753,20.1466875 C223.449941,20.1466875 223.522784,20.4103099 223.578284,20.9375625 L223.578284,21.0208125 C223.578284,21.4925649 223.273037,21.7284375 222.662534,21.7284375 L222.579284,21.7284375 C221.698217,21.7284375 221.25769,21.5654079 221.25769,21.2393438 C220.841438,20.386027 220.504973,19.3384749 220.248284,18.0966562 L219.332534,12.6021561 L219.290909,12.6021561 C218.312717,13.7954121 217.161103,16.1055766 215.836034,19.5327187 C215.287969,20.6496618 214.982722,21.2185311 214.920284,21.2393438 C214.920284,21.1491558 214.778067,21.0901876 214.493628,21.0624375 L213.879659,21.0624375 C213.62297,21.0624375 213.494628,20.934095 213.494628,20.6774062 L213.005534,19.8032812 C213.387098,18.4157743 213.577878,15.9807361 213.577878,12.4980936 C214.160631,12.1442794 214.465878,11.929219 214.493628,11.8529061 C214.493628,11.7280305 214.552596,11.6655936 214.670534,11.6655936 C215.690352,11.8043443 216.200253,11.9534991 216.200253,12.1130624 L216.075378,12.4980936 L216.117003,12.5397186 L216.158628,12.5397186 C216.713631,12.012466 217.220063,11.3291291 217.67794,10.4896874 C218.413319,9.41436947 219.08625,8.87671859 219.696753,8.87671859 Z M229.104003,1.738031 C229.742256,1.738031 230.196658,2.05715281 230.467222,2.69540601 C229.912219,6.11561066 229.634722,8.81427121 229.634722,10.7914686 L229.634722,12.5813436 L230.207065,12.6229686 C231.441947,12.6229686 232.805152,12.4321893 234.296722,12.0506249 L235.004347,12.0089999 C235.6426,12.0089999 235.961722,12.3142468 235.961722,12.9247499 C235.961722,13.833567 235.351228,14.3712178 234.130222,14.5377187 C233.589094,14.6834069 232.191202,14.8429678 229.936503,15.0164062 C229.936503,15.0719065 229.83591,15.0996562 229.634722,15.0996562 L229.894878,17.8469062 C229.894878,18.2284706 229.80816,18.5684047 229.634722,18.8667187 C229.83591,19.1095324 229.936503,19.4425291 229.936503,19.8657187 L229.936503,20.292375 C229.936503,21.2497548 229.83591,21.7631247 229.634722,21.8325 L228.542065,21.74925 C228.41719,21.74925 228.268035,21.846374 228.094597,22.040625 C227.345343,21.7145609 226.970722,20.5074479 226.970722,18.41925 C226.970722,16.5322405 226.870129,15.5887499 226.66894,15.5887499 C226.412252,15.3181861 225.524261,15.1829062 224.00494,15.1829062 C223.325062,15.1829062 222.842911,14.8186911 222.558472,14.0902499 L222.558472,13.9653749 C222.898411,13.2161212 223.671934,12.8414999 224.879065,12.8414999 C225.517319,12.855375 225.83644,12.8969995 225.83644,12.9663749 C226.051504,12.9663749 226.207596,12.7894704 226.304722,12.4356561 L226.440003,12.3524061 L226.804222,12.3524061 L226.75219,11.7904686 C226.75219,9.37620653 227.001938,6.25783142 227.50144,2.43524976 C227.86913,1.97043493 228.344344,1.738031 228.927097,1.738031 L229.104003,1.738031 Z M240.259503,10.7498436 C241.272383,10.7498436 241.834315,10.9995911 241.945316,11.4990936 C242.132629,11.9639085 242.226284,12.2691554 242.226284,12.4148436 C242.038971,12.7270327 241.612319,12.9594366 240.946316,13.1120624 C238.941368,13.4242515 237.938909,13.6948113 237.938909,13.9237499 C238.237223,14.4093773 238.982997,14.8221545 240.176253,15.1620937 C242.264451,15.6407836 243.776811,16.1090601 244.713378,16.5669374 C245.58057,17.0941901 246.014159,17.7914019 246.014159,18.6585937 C246.014159,20.0807883 244.74461,21.0381538 242.205472,21.5307188 C241.463156,21.6625319 240.765944,21.7284375 240.113816,21.7284375 C237.53999,21.5549991 236.253097,21.2566896 236.253097,20.8335 C235.982533,20.5629361 235.847253,20.2264708 235.847253,19.8240937 L235.847253,19.6159687 C235.847253,19.0887161 236.131688,18.6065647 236.700566,18.1695 C238.136635,18.8632534 239.350686,19.210125 240.342753,19.210125 C241.14057,19.210125 241.796157,18.9742523 242.309534,18.5025 L242.309534,18.460875 C241.567218,18.0515604 240.13117,17.5902213 238.001347,17.0768437 C235.899274,16.4663406 234.848253,15.6997545 234.848253,14.7770624 L234.848253,14.6521874 C234.848253,13.2299928 235.729307,12.1338787 237.491441,11.3638124 C238.386383,10.9544978 239.194593,10.7498436 239.916097,10.7498436 L240.259503,10.7498436 Z" id="Payments"></path>
                    <g id="UCDAVIS" transform="translate(0.000000, 3.656000)" fill-rule="nonzero">
                        <path d="M74.7004526,6.28776062 L74.7004526,6.28776062 C74.8286229,7.11571442 76.0976359,13.0579426 76.0976359,13.0579426 L73.3121523,13.0579426 L74.7004526,6.28776062 Z M64.132112,20.1036916 L71.5000017,20.1036916 L72.0558294,17.6636704 L77.3146194,17.6636704 L78.0163836,20.1036916 L85.3842733,20.1036916 L78.4833804,0.683728431 L70.7588981,0.683728431 L64.132112,20.1036916 Z" id="Shape"></path>
                        <path d="M46.0448691,0.682475854 L53.1817985,0.682475854 C59.662648,0.682475854 64.6117989,3.53459505 64.6117989,10.6705297 C64.6117989,16.4211134 60.5763374,20.1011864 54.9101942,20.1011864 L46.0448691,20.0899132 L46.0448691,0.682475854 Z M53.0548971,14.5259635 L53.5320461,14.5259635 C55.8708371,14.5259635 57.6017709,13.1819477 57.6017709,10.6479833 C57.6017709,7.91861666 56.0662651,6.3954823 53.4977827,6.3954823 L53.0548971,6.3954823 L53.0548971,14.5259635 Z" id="Shape"></path>
                        <path d="M41.8025585,1.29122857 L42.1781864,4.47903857 C42.2682863,5.23559544 42.7187859,7.04932781 42.1642272,6.80632775 C41.8139796,6.65476586 41.5271827,5.83432753 41.2429238,5.10282221 C41.0982563,4.73331182 40.4079132,2.97970318 40.2264443,2.84943511 C39.3571704,2.22189373 37.179544,1.51669254 35.7074889,1.51042965 C31.239294,1.49414614 28.2875697,4.65314685 28.2875697,10.2559265 C28.2875697,14.2741954 30.2951483,19.1003769 35.4029258,19.1003769 C37.2315736,19.1003769 40.7340496,18.5442325 41.6870783,16.0503505 C42.1172738,14.921778 42.5119368,13.9159582 42.7987338,14.2228397 C43.0093899,14.4432934 42.7352831,15.348907 42.6083818,15.8361597 C42.0068696,18.1496705 41.9726063,18.8498614 41.7835233,18.9412996 C39.4764576,20.0498307 36.5171192,20.4155834 33.9270636,20.4155834 C25.697514,20.4155834 22.8536558,15.8098556 22.8536558,11.2053803 C22.8536558,3.21518777 27.9703164,-0.0941222598 35.9067239,0.193970589 C37.9117646,0.26662009 39.9206122,0.612331508 41.8025585,1.29122857" id="Shape"></path>
                        <path d="M17.4920757,1.64570803 L16.1735712,1.20480071 C15.7294166,0.821511967 16.2687472,0.715042871 16.2687472,0.715042871 C16.2687472,0.715042871 18.1722667,1.0544914 22.9183755,0.669950078 C22.9183755,0.669950078 23.3346118,0.747609889 23.0490838,1.06952233 L21.4907358,1.70958949 C20.4780634,2.13296072 20.4780634,1.88870808 20.4780634,2.95465162 L20.4691803,12.8512673 C20.4691803,20.5909443 12.258666,20.416836 10.6597095,20.416836 C9.89830171,20.416836 2.42635293,20.416836 2.42635293,14.2027985 L2.42635293,3.72874458 C2.42635293,1.89998128 2.628126,1.95133696 1.99742652,1.73589362 L0.0900999258,1.04948109 C0.0900999258,1.04948109 -0.232229386,0.613584085 0.341364508,0.639888215 C1.89844351,0.715042871 4.15347968,1.03570274 9.39323452,0.669950078 C9.39323452,0.669950078 9.85261724,0.776419174 9.55186115,1.09833162 L8.02777649,1.52295542 C6.8222141,2.04152255 6.98084073,1.64570803 6.95038442,2.83189902 L6.98591678,13.1619065 C6.98591678,15.6946184 8.34376073,18.8298202 12.5632291,18.8298202 C18.3816539,18.8298202 18.4349524,14.0023861 18.4349524,12.9301796 L18.4463735,2.70037837 C18.5085552,1.73589362 18.3803849,2.01020811 17.4920757,1.64570803" id="Shape"></path>
                        <path d="M111.228993,18.6118717 L113.259414,13.4612726 L113.616006,13.750618 C114.862177,14.7276285 116.55631,15.5580875 118.152728,15.5919071 C119.581637,15.6207163 120.278325,15.2562163 120.090511,14.1000871 C119.945843,13.2307983 118.928095,13.0817415 118.292319,12.9589889 L116.893867,12.6921899 C114.174372,12.2049372 111.891418,10.5978802 111.891418,7.552864 C111.891418,2.94713616 116.030938,0.366826298 120.195839,0.366826298 C122.384887,0.366826298 124.389927,0.897919201 126.269335,2.07033184 L124.504138,6.63722978 C123.53715,5.96960591 122.07144,5.02766756 120.21995,4.96253352 C119.607017,4.93998712 118.213641,5.24937379 118.659064,6.60591534 C118.851954,7.18460619 119.716152,7.42885882 120.247869,7.55161142 L121.822714,7.91736408 C124.7719,8.5762199 126.901304,10.1845295 126.901304,13.468788 C126.901304,18.1020726 122.737672,20.3942896 118.599421,20.3942896 C116.185758,20.3942896 113.388853,19.7341812 111.228993,18.6118717" id="Shape"></path>
                        <rect id="Rectangle-path" x="102.763407" y="0.683728431" width="6.9681506" height="19.4199631"></rect>
                        <polygon id="Shape" points="94.7737008 0.682475854 102.033724 0.682475854 94.6176122 20.1011864 88.7255847 20.1011864 81.3310457 0.682475854 88.5694961 0.682475854 91.6696949 12.4003393"></polygon>
                    </g>
                </g>
            </g>
        </g>
    </g>
</svg>