<?xml version="1.0" encoding="UTF-8"?>
<svg width="152px" height="60px" viewBox="0 0 152 60" version="1.1" xmlns="http://www.w3.org/2000/svg" xmlns:xlink="http://www.w3.org/1999/xlink">
    <!-- Generator: Sketch 50.2 (55047) - http://www.bohemiancoding.com/sketch -->
    <title>logo</title>
    <desc>Created with Sketch.</desc>
    <defs></defs>
    <g id="Page-1" stroke="none" stroke-width="1" fill="none" fill-rule="evenodd">
        <g id="dashboard-copy" transform="translate(-124.000000, -47.000000)" fill="#004987">
            <g id="logo" transform="translate(124.000000, 47.000000)">
                <path d="M4.46693878,52.3076923 L3.2757551,52.3076923 L3.2757551,27.68 L11.8746122,27.68 C16.490449,27.68 19.1333878,30.8923077 19.1333878,34.6584615 C19.1333878,38.4246154 16.416,41.6369231 11.8746122,41.6369231 L4.46693878,41.6369231 L4.46693878,52.3076923 Z M11.8373878,40.5292308 C15.4853878,40.5292308 17.8305306,38.0553846 17.8305306,34.6584615 C17.8305306,31.2615385 15.4853878,28.7876923 11.8373878,28.7876923 L4.46693878,28.7876923 L4.46693878,40.5292308 L11.8373878,40.5292308 Z M36.5916735,52.3076923 L35.4749388,52.3076923 L35.4749388,50.1292308 C33.7998367,51.9384615 31.7897143,52.7507692 29.258449,52.7507692 C26.0943673,52.7507692 22.9675102,50.6092308 22.9675102,46.8061538 C22.9675102,43.0030769 26.0571429,40.8615385 29.258449,40.8615385 C31.7897143,40.8615385 33.7998367,41.6738462 35.4749388,43.4830769 L35.4749388,39.4584615 C35.4749388,36.5784615 33.1670204,35.0276923 30.4124082,35.0276923 C28.0672653,35.0276923 26.3177143,35.84 24.6426122,37.8338462 L23.786449,37.0953846 C25.536,35.0646154 27.3972245,34.0307692 30.4124082,34.0307692 C33.9487347,34.0307692 36.5916735,35.8030769 36.5916735,39.4215385 L36.5916735,52.3076923 Z M29.5562449,51.7538462 C31.9013878,51.7538462 34.0976327,50.8307692 35.4749388,49.0215385 L35.4749388,44.5907692 C34.0976327,42.7815385 31.9013878,41.8584615 29.5562449,41.8584615 C26.2804898,41.8584615 24.1959184,44.0369231 24.1959184,46.8061538 C24.1959184,49.5753846 26.2804898,51.7538462 29.5562449,51.7538462 Z M41.6542041,59.2861538 L41.877551,58.2523077 C42.2870204,58.4369231 42.9942857,58.5476923 43.4409796,58.5476923 C44.6321633,58.5476923 45.451102,58.0307692 46.2700408,56.1107692 L47.9079184,52.4184615 L40.202449,34.4738462 L41.5053061,34.4738462 L48.5779592,51.0153846 L55.6133878,34.4738462 L56.9162449,34.4738462 L47.3867755,56.5169231 C46.5306122,58.4369231 45.2277551,59.5446154 43.4409796,59.5446154 C42.8081633,59.5446154 42.100898,59.4338462 41.6542041,59.2861538 Z M82.7872653,52.3076923 L81.6705306,52.3076923 L81.6705306,39.4584615 C81.6705306,36.6892308 80.5165714,35.0276923 77.7991837,35.0276923 C75.7890612,35.0276923 73.3322449,36.5415385 72.2155102,38.3507692 L72.2155102,52.3076923 L71.0987755,52.3076923 L71.0987755,39.4584615 C71.0987755,36.6892308 69.9448163,35.0276923 67.2274286,35.0276923 C65.2173061,35.0276923 62.8349388,36.5784615 61.6437551,38.3876923 L61.6437551,52.3076923 L60.5270204,52.3076923 L60.5270204,34.4738462 L61.6437551,34.4738462 L61.6437551,37.28 C62.3882449,36.0984615 64.8450612,34.0307692 67.413551,34.0307692 C70.2426122,34.0307692 71.6943673,35.7661538 72.0666122,37.4276923 C73.0716735,35.7661538 75.4912653,34.0307692 77.9853061,34.0307692 C81.2610612,34.0307692 82.7872653,35.9138462 82.7872653,39.4584615 L82.7872653,52.3076923 Z M97.0442449,52.7507692 C91.8328163,52.7507692 88.2220408,48.8 88.2220408,43.3723077 C88.2220408,38.2030769 91.8328163,34.0307692 96.672,34.0307692 C102.181224,34.0307692 105.010286,38.4246154 105.010286,43.3723077 L105.010286,43.7415385 L89.4876735,43.7415385 C89.5993469,48.0984615 92.4656327,51.7538462 97.0442449,51.7538462 C99.5755102,51.7538462 101.622857,50.8307692 103.297959,49.0584615 L103.968,49.76 C102.144,51.6430769 100.059429,52.7507692 97.0442449,52.7507692 Z M103.819102,42.7446154 C103.819102,39.3107692 101.548408,35.0276923 96.6347755,35.0276923 C92.0189388,35.0276923 89.5993469,39.2369231 89.4876735,42.7446154 L103.819102,42.7446154 Z M123.69698,52.3076923 L122.580245,52.3076923 L122.580245,39.8646154 C122.580245,36.1353846 120.71902,35.0276923 117.927184,35.0276923 C115.470367,35.0276923 112.827429,36.6153846 111.561796,38.3876923 L111.561796,52.3076923 L110.445061,52.3076923 L110.445061,34.4738462 L111.561796,34.4738462 L111.561796,37.28 C112.901878,35.6553846 115.582041,34.0307692 118.076082,34.0307692 C121.649633,34.0307692 123.69698,35.6553846 123.69698,39.8646154 L123.69698,52.3076923 Z M133.375347,52.7507692 C131.290776,52.7507692 130.322939,51.3846154 130.322939,49.1692308 L130.322939,35.4707692 L127.34498,35.4707692 L127.34498,34.4738462 L130.322939,34.4738462 L130.322939,29.6 L131.439673,29.6 L131.439673,34.4738462 L135.087673,34.4738462 L135.087673,35.4707692 L131.439673,35.4707692 L131.439673,49.1692308 C131.439673,50.6830769 132.035265,51.7538462 133.375347,51.7538462 C134.268735,51.7538462 135.050449,51.3107692 135.497143,50.7938462 L136.167184,51.6430769 C135.459918,52.3076923 134.715429,52.7507692 133.375347,52.7507692 Z M144.654367,52.7507692 C141.825306,52.7507692 139.852408,51.9384615 138.065633,49.9076923 L138.95902,49.0953846 C140.075755,50.5723077 142.011429,51.7538462 144.654367,51.7538462 C147.967347,51.7538462 149.977469,49.9815385 149.977469,47.6184615 C149.977469,42.1538462 138.437878,44.9969231 138.437878,38.7569231 C138.437878,36.1353846 140.671347,34.0307692 144.542694,34.0307692 C147.632327,34.0307692 149.568,35.2492308 150.721959,36.7261538 L149.90302,37.4646154 C148.860735,35.9876923 146.962286,35.0276923 144.542694,35.0276923 C141.415837,35.0276923 139.554612,36.6523077 139.554612,38.7569231 C139.554612,43.7415385 151.094204,40.8615385 151.094204,47.6184615 C151.094204,50.3876923 149.009633,52.7507692 144.654367,52.7507692 Z" id="Payments"></path>
                <g id="UCDAVIS" fill-rule="nonzero">
                    <path d="M67.5186043,5.68359445 L67.5186043,5.68359445 C67.634452,6.43199343 68.7814597,11.8032563 68.7814597,11.8032563 L66.2637779,11.8032563 L67.5186043,5.68359445 Z M57.9663247,18.172007 L64.625851,18.172007 L65.1282404,15.9664378 L69.88144,15.9664378 L70.5157352,18.172007 L77.1752615,18.172007 L70.937834,0.618031657 L63.9559986,0.618031657 L57.9663247,18.172007 Z" id="Shape"></path>
                    <path d="M41.6180249,0.616899435 L48.0687959,0.616899435 C53.9265638,0.616899435 58.3998936,3.19496973 58.3998936,9.64524046 C58.3998936,14.8432733 54.7524093,18.1697425 49.6310202,18.1697425 L41.6180249,18.1595525 L41.6180249,0.616899435 Z M47.9540951,13.1302209 L48.38537,13.1302209 C50.499305,13.1302209 52.0638234,11.9153463 52.0638234,9.62486045 C52.0638234,7.15774795 50.6759442,5.78096557 48.3544008,5.78096557 L47.9540951,5.78096557 L47.9540951,13.1302209 Z" id="Shape"></path>
                    <path d="M37.7835784,1.1671595 L38.1230927,4.04866538 C38.2045302,4.73252768 38.6117179,6.37198564 38.1104756,6.15233451 C37.7939015,6.0153356 37.5346778,5.27372996 37.277748,4.61251211 C37.1469892,4.27850652 36.523017,2.69339523 36.3589949,2.5756441 C35.5732947,2.0084007 33.6050296,1.37095952 32.2745008,1.36529841 C28.2358869,1.35057952 25.5679471,4.20604429 25.5679471,9.27047486 C25.5679471,12.9026442 27.3825132,17.2650969 31.9992189,17.2650969 C33.6520569,17.2650969 36.817798,16.7623902 37.6792007,14.5081355 C38.0680363,13.4880031 38.4247557,12.5788286 38.6839794,12.856223 C38.8743827,13.0554942 38.626629,13.8740909 38.5119283,14.3145254 C37.9682466,16.4057401 37.9372774,17.0386524 37.7663733,17.1213046 C35.6811134,18.1233214 33.0062916,18.4539303 30.665249,18.4539303 C23.2269046,18.4539303 20.6564604,14.2907488 20.6564604,10.1286994 C20.6564604,2.90625303 25.2811952,-0.0850784223 32.454581,0.175332718 C34.266853,0.241001615 36.0825661,0.553494983 37.7835784,1.1671595" id="Shape"></path>
                    <path d="M15.8103532,1.48757842 L14.6186123,1.08903615 C14.2171596,0.742576116 14.7046378,0.646337216 14.7046378,0.646337216 C14.7046378,0.646337216 16.4251493,0.953169473 20.7149578,0.605577211 C20.7149578,0.605577211 21.0911763,0.675774997 20.8330996,0.966756141 L19.4245743,1.54532176 C18.5092622,1.92801292 18.5092622,1.70722956 18.5092622,2.67075078 L18.5012331,11.6164396 C18.5012331,18.6124415 11.0800937,18.4550626 9.63486411,18.4550626 C8.94665953,18.4550626 2.19307859,18.4550626 2.19307859,12.8381075 L2.19307859,3.37046419 C2.19307859,1.71741956 2.37545281,1.76384068 1.80539001,1.56909843 L0.0814375419,0.948640584 C0.0814375419,0.948640584 -0.209902397,0.554627206 0.308545053,0.578403875 C1.71592342,0.646337216 3.75415598,0.936186138 8.49015049,0.605577211 C8.49015049,0.605577211 8.90536726,0.701816111 8.63352645,0.992797255 L7.25597028,1.37662063 C6.16631303,1.84536069 6.30968898,1.48757842 6.2821608,2.55979299 L6.31427702,11.8972307 C6.31427702,14.1865843 7.54157518,17.0205368 11.3553756,17.0205368 C16.6144056,17.0205368 16.6625799,12.6569519 16.6625799,11.6877696 L16.6729029,2.44090964 C16.7291063,1.56909843 16.6132585,1.81705513 15.8103532,1.48757842" id="Shape"></path>
                    <path d="M100.535219,16.8235302 L102.370431,12.1678319 L102.69274,12.4293752 C103.819102,13.3125086 105.350357,14.0631721 106.793293,14.0937421 C108.084823,14.1197832 108.71453,13.7903065 108.544773,12.7452653 C108.414014,11.9595029 107.494114,11.8247685 106.919463,11.7138107 L105.655461,11.4726473 C103.197424,11.0322128 101.133957,9.57957156 101.133957,6.82713903 C101.133957,2.66395744 104.875496,0.331579403 108.639975,0.331579403 C110.618563,0.331579403 112.430835,0.811641679 114.129553,1.8714018 L112.534066,5.99948449 C111.660046,5.39600998 110.335252,4.54457877 108.661768,4.48570321 C108.107763,4.4653232 106.848349,4.74498212 107.250949,5.97117893 C107.425294,6.49426566 108.206406,6.71504901 108.687002,6.8260068 L110.110439,7.15661573 C112.776084,7.75216469 114.700763,9.20593818 114.700763,12.1746252 C114.700763,16.3627157 110.937431,18.4346826 107.197039,18.4346826 C105.015431,18.4346826 102.487426,17.8380014 100.535219,16.8235302" id="Shape"></path>
                    <rect id="Rectangle-path" x="92.8835311" y="0.618031657" width="6.29821891" height="17.5539753"></rect>
                    <polygon id="Shape" points="85.661971 0.616899435 92.2240017 0.616899435 85.5208891 18.1697425 80.1953326 18.1697425 73.5117191 0.616899435 80.0542507 0.616899435 82.8563903 11.2088395"></polygon>
                </g>
            </g>
        </g>
    </g>
</svg>