<?xml version="1.0" encoding="UTF-8"?>
<svg viewBox="0 0 246 32" version="1.1" xmlns="http://www.w3.org/2000/svg" xmlns:xlink="http://www.w3.org/1999/xlink">
    <!-- Generator: Sketch 49.3 (51167) - http://www.bohemiancoding.com/sketch -->
    <title>logo</title>
    <desc>Created with Sketch.</desc>
    <defs></defs>
    <g id="Page-1" stroke="none" stroke-width="1" fill="none" fill-rule="evenodd">
        <g id="logocolor" transform="translate(-100.000000, -41.000000)" fill="#1D4A83">
            <g id="header" transform="translate(100.000000, 29.000000)">
                <g id="logo" transform="translate(0.000000, 11.656000)">
                    <g id="logocolor">
                        <path d="M74.7004526,10.2877606 L74.7004526,10.2877606 C74.8286229,11.1157144 76.0976359,17.0579426 76.0976359,17.0579426 L73.3121523,17.0579426 L74.7004526,10.2877606 Z M64.132112,24.1036916 L71.5000017,24.1036916 L72.0558294,21.6636704 L77.3146194,21.6636704 L78.0163836,24.1036916 L85.3842733,24.1036916 L78.4833804,4.68372843 L70.7588981,4.68372843 L64.132112,24.1036916 Z" id="Shape" fill-rule="nonzero"></path>
                        <path d="M46.0448691,4.68247585 L53.1817985,4.68247585 C59.662648,4.68247585 64.6117989,7.53459505 64.6117989,14.6705297 C64.6117989,20.4211134 60.5763374,24.1011864 54.9101942,24.1011864 L46.0448691,24.0899132 L46.0448691,4.68247585 Z M53.0548971,18.5259635 L53.5320461,18.5259635 C55.8708371,18.5259635 57.6017709,17.1819477 57.6017709,14.6479833 C57.6017709,11.9186167 56.0662651,10.3954823 53.4977827,10.3954823 L53.0548971,10.3954823 L53.0548971,18.5259635 Z" id="Shape" fill-rule="nonzero"></path>
                        <path d="M41.8025585,5.29122857 L42.1781864,8.47903857 C42.2682863,9.23559544 42.7187859,11.0493278 42.1642272,10.8063278 C41.8139796,10.6547659 41.5271827,9.83432753 41.2429238,9.10282221 C41.0982563,8.73331182 40.4079132,6.97970318 40.2264443,6.84943511 C39.3571704,6.22189373 37.179544,5.51669254 35.7074889,5.51042965 C31.239294,5.49414614 28.2875697,8.65314685 28.2875697,14.2559265 C28.2875697,18.2741954 30.2951483,23.1003769 35.4029258,23.1003769 C37.2315736,23.1003769 40.7340496,22.5442325 41.6870783,20.0503505 C42.1172738,18.921778 42.5119368,17.9159582 42.7987338,18.2228397 C43.0093899,18.4432934 42.7352831,19.348907 42.6083818,19.8361597 C42.0068696,22.1496705 41.9726063,22.8498614 41.7835233,22.9412996 C39.4764576,24.0498307 36.5171192,24.4155834 33.9270636,24.4155834 C25.697514,24.4155834 22.8536558,19.8098556 22.8536558,15.2053803 C22.8536558,7.21518777 27.9703164,3.90587774 35.9067239,4.19397059 C37.9117646,4.26662009 39.9206122,4.61233151 41.8025585,5.29122857" id="Shape" fill-rule="nonzero"></path>
                        <path d="M17.4920757,5.64570803 L16.1735712,5.20480071 C15.7294166,4.82151197 16.2687472,4.71504287 16.2687472,4.71504287 C16.2687472,4.71504287 18.1722667,5.0544914 22.9183755,4.66995008 C22.9183755,4.66995008 23.3346118,4.74760989 23.0490838,5.06952233 L21.4907358,5.70958949 C20.4780634,6.13296072 20.4780634,5.88870808 20.4780634,6.95465162 L20.4691803,16.8512673 C20.4691803,24.5909443 12.258666,24.416836 10.6597095,24.416836 C9.89830171,24.416836 2.42635293,24.416836 2.42635293,18.2027985 L2.42635293,7.72874458 C2.42635293,5.89998128 2.628126,5.95133696 1.99742652,5.73589362 L0.0900999258,5.04948109 C0.0900999258,5.04948109 -0.232229386,4.61358409 0.341364508,4.63988822 C1.89844351,4.71504287 4.15347968,5.03570274 9.39323452,4.66995008 C9.39323452,4.66995008 9.85261724,4.77641917 9.55186115,5.09833162 L8.02777649,5.52295542 C6.8222141,6.04152255 6.98084073,5.64570803 6.95038442,6.83189902 L6.98591678,17.1619065 C6.98591678,19.6946184 8.34376073,22.8298202 12.5632291,22.8298202 C18.3816539,22.8298202 18.4349524,18.0023861 18.4349524,16.9301796 L18.4463735,6.70037837 C18.5085552,5.73589362 18.3803849,6.01020811 17.4920757,5.64570803" id="Shape" fill-rule="nonzero"></path>
                        <path d="M111.228993,22.6118717 L113.259414,17.4612726 L113.616006,17.750618 C114.862177,18.7276285 116.55631,19.5580875 118.152728,19.5919071 C119.581637,19.6207163 120.278325,19.2562163 120.090511,18.1000871 C119.945843,17.2307983 118.928095,17.0817415 118.292319,16.9589889 L116.893867,16.6921899 C114.174372,16.2049372 111.891418,14.5978802 111.891418,11.552864 C111.891418,6.94713616 116.030938,4.3668263 120.195839,4.3668263 C122.384887,4.3668263 124.389927,4.8979192 126.269335,6.07033184 L124.504138,10.6372298 C123.53715,9.96960591 122.07144,9.02766756 120.21995,8.96253352 C119.607017,8.93998712 118.213641,9.24937379 118.659064,10.6059153 C118.851954,11.1846062 119.716152,11.4288588 120.247869,11.5516114 L121.822714,11.9173641 C124.7719,12.5762199 126.901304,14.1845295 126.901304,17.468788 C126.901304,22.1020726 122.737672,24.3942896 118.599421,24.3942896 C116.185758,24.3942896 113.388853,23.7341812 111.228993,22.6118717" id="Shape" fill-rule="nonzero"></path>
                        <rect id="Rectangle-path" fill-rule="nonzero" x="102.763407" y="4.68372843" width="6.9681506" height="19.4199631"></rect>
                        <polygon id="Shape" fill-rule="nonzero" points="94.7737008 4.68247585 102.033724 4.68247585 94.6176122 24.1011864 88.7255847 24.1011864 81.3310457 4.68247585 88.5694961 4.68247585 91.6696949 16.4003393"></polygon>
                        <path d="M148.278658,0.666780846 C148.958537,0.666780846 149.392126,0.975496513 149.579439,1.59293711 C149.579439,1.84268836 149.714719,1.96756211 149.985283,1.96756211 C152.455046,2.5225649 154.841522,3.41055603 157.144783,4.63156215 C159.059543,5.58894195 160.016908,6.87583534 160.016908,8.49228095 L160.016908,8.65878095 C160.016908,10.4972277 159.128917,12.1552736 157.352908,13.6329685 C155.993151,14.6389111 154.494666,15.5130273 152.857408,16.2553435 L149.402533,17.0358123 C149.402533,19.2835736 149.510063,20.9312134 149.725127,21.9787811 L149.725127,22.3638124 C149.725127,23.4738179 149.41988,24.14328 148.809377,24.3722187 C147.671621,24.3722187 146.974409,22.9153582 146.717721,20.0015936 C146.717721,18.593274 146.641409,17.7746572 146.488783,17.5457186 L146.041314,17.5769373 C145.854001,17.4312491 145.697909,17.0600965 145.573033,16.4634685 L145.458564,16.3385935 L145.458564,16.2553435 C145.458564,16.1512805 145.843592,15.8148151 146.613658,15.2459373 C146.530408,13.386678 146.461033,10.7365794 146.405533,7.29556218 L146.384721,4.7044059 C145.045776,4.3852793 144.376314,4.1147195 144.376314,3.89271839 L144.376314,3.63256213 C144.660753,2.73762015 144.851533,2.29015587 144.948658,2.29015587 L146.447158,1.84268711 C146.759347,1.05874568 147.290061,0.666780846 148.039314,0.666780846 L148.278658,0.666780846 Z M149.319283,4.63156215 C149.305408,6.69200998 149.298471,8.44024252 149.298471,9.87631221 C149.298471,12.3668872 149.32622,13.8792471 149.381721,14.4134373 C151.671107,13.7751841 153.370778,13.1230656 154.480783,12.4570622 C155.771165,11.6731208 156.638344,10.5943503 157.082346,9.22071846 C157.123971,9.0889053 157.144783,8.90159467 157.144783,8.65878095 L157.144783,8.61715595 C157.144783,7.08396076 154.536309,5.75544278 149.319283,4.63156215 Z M169.47619,10.0011872 C170.017317,10.0011872 170.381533,10.4590576 170.568846,11.3748122 C170.568846,11.8535021 170.860218,13.4074866 171.442971,16.0368123 C171.852286,17.5006321 172.448905,18.7354948 173.232846,19.7414373 C173.697661,20.4421284 173.930065,20.983248 173.930065,21.3648124 L173.930065,21.6249686 C173.930065,21.9510328 173.725411,22.1140624 173.316096,22.1140624 C172.920657,22.3707512 172.650097,22.4990936 172.504408,22.4990936 C171.734342,22.2146547 171.044068,21.6006921 170.433565,20.6571874 C170.121376,20.0605594 169.555975,18.7563224 168.737346,16.7444373 L168.47719,16.4218435 C167.471247,17.9689138 166.597131,19.1690893 165.854815,20.0224061 C164.945998,20.9728484 163.901914,21.4480624 162.722533,21.4480624 C161.598653,21.4480624 160.866754,20.8653182 160.526815,19.6998123 L160.48519,19.0025936 C160.48519,17.4347107 161.501523,15.4887614 163.534221,13.1646873 C164.796852,12.1379321 166.253713,11.2638158 167.904846,10.5423122 C168.355786,10.1815604 168.810187,10.0011872 169.268065,10.0011872 L169.47619,10.0011872 Z M163.492596,18.6175623 L163.534221,18.6175623 C164.200224,18.6175623 164.873155,18.0348181 165.553033,16.8693123 C166.808727,15.322242 167.436565,14.1151291 167.436565,13.2479373 L167.39494,13.2063123 L167.301283,13.2063123 C166.808718,13.358938 165.920727,14.0977744 164.637283,15.4228435 C163.846404,16.4287861 163.450971,17.4798068 163.450971,18.5759373 L163.492596,18.6175623 Z M182.327909,7.53490593 C182.723348,7.53490593 183.04247,7.69793556 183.285284,8.02399969 C183.555847,13.1369628 183.691127,16.8311447 183.691127,19.1066561 L183.691127,19.4292498 L184.159409,26.0164062 C184.145534,28.7567324 183.066763,30.5882141 180.923065,31.5109062 C180.423562,31.663532 179.948348,31.7398437 179.497409,31.7398437 C177.7214,31.7398437 175.928074,30.688823 174.117377,28.58675 C173.680313,28.0178721 173.461783,27.4802212 173.461783,26.9737812 C173.787848,26.633842 174.134719,26.4638749 174.502408,26.4638749 C174.772972,26.4638749 175.341842,26.7968716 176.209034,27.4628749 C176.326972,27.5600004 176.576719,27.6154999 176.958284,27.6293749 L178.956284,28.8469062 C179.212972,28.9440317 179.448845,28.9925937 179.663909,28.9925937 L179.747159,28.9925937 C180.61435,28.9925937 181.18322,28.2190702 181.453784,26.6719999 C181.592534,25.8741834 181.661909,24.7503197 181.661909,23.3003749 C181.661909,20.927738 181.401755,18.3851696 180.88144,15.6725935 C180.395812,16.1998462 179.670851,17.2578044 178.706534,18.8464998 C177.839342,19.7900046 177.214973,20.2617498 176.833409,20.2617498 C176.403281,20.4560008 175.820537,20.5531249 175.085159,20.5531249 L174.908252,20.5531249 C174.471188,20.5531249 174.05841,19.9703807 173.669908,18.8048748 C173.531158,18.1527466 173.461783,17.4728784 173.461783,16.7652498 C173.461783,15.0586162 173.79478,13.0190116 174.460783,10.6463747 C174.786848,9.98037139 175.151063,9.64737471 175.55344,9.64737471 L175.824002,9.64737471 C176.136191,9.64737471 176.500406,9.83121663 176.916659,10.198906 L176.916659,10.3029685 C176.916659,10.9689718 176.639161,12.40502 176.084159,14.611156 C175.91072,15.2216591 175.824002,15.9396832 175.824002,16.7652498 L175.865627,17.4624686 L176.000909,17.4624686 C176.368598,17.4624686 176.906249,17.0219417 177.613877,16.1408748 C177.74569,16.1408748 177.919126,15.8356278 178.13419,15.2251248 C179.65351,12.3876731 180.413159,10.6255657 180.413159,9.93874972 C180.524159,9.52943516 180.579659,9.08197088 180.579659,8.59634345 L180.579659,8.51309345 C180.877973,8.25640466 181.15547,7.93034542 181.412159,7.53490593 L182.327909,7.53490593 Z M194.815409,11.863906 C195.738101,12.0026567 196.234127,12.193436 196.303503,12.4362497 C196.76138,13.1716284 197.309437,14.5140213 197.94769,16.4634685 C198.440255,18.0382889 198.991781,19.5228991 199.602284,20.9173436 C199.602284,21.0283442 199.432317,21.2260609 199.092378,21.5104999 C199.092378,21.6561881 199.043816,21.7290311 198.94669,21.7290311 C197.593871,21.7290311 196.692005,20.9901947 196.241065,19.5124998 C195.783188,17.8891167 195.391223,16.8103462 195.065159,16.276156 L195.023534,16.276156 C193.747027,19.9391744 192.817412,21.7706561 192.234659,21.7706561 L191.87044,21.7706561 C190.815935,21.7706561 190.205441,20.6849482 190.03894,18.5134998 C189.865502,16.7929912 189.723284,15.9327498 189.612284,15.9327498 C189.258469,16.3143142 188.85263,17.3167729 188.394752,18.9401561 C187.916063,20.7716653 187.284756,21.6874061 186.500815,21.6874061 C186.174751,21.6874061 185.810536,21.5451888 185.408159,21.2607499 L185.46019,21.0422186 L185.46019,20.8549061 L185.200034,20.5531249 C185.373472,20.0119971 185.46019,19.4743463 185.46019,18.9401561 L185.366534,16.1408748 L185.408159,15.485281 C185.706473,15.485281 185.855627,15.2285961 185.855627,14.7152185 L185.855627,14.486281 C185.855627,14.4099681 186.084563,14.2955005 186.54244,14.1428748 C186.611815,13.9694364 186.674252,13.8827185 186.729752,13.8827185 L187.29169,14.1012498 C187.40269,14.0873747 187.884842,13.5878797 188.738159,12.6027498 C189.091973,12.3183108 189.296627,12.1760935 189.352127,12.1760935 C190.704947,12.1760935 191.638031,13.0640846 192.151409,14.8400935 L192.317909,15.2667498 L192.401159,15.2667498 C192.630097,14.8296851 192.921469,14.0908487 193.275284,13.0502185 C193.462597,12.6825292 193.67072,12.4050319 193.899659,12.2177185 L194.274284,12.2697497 L194.596878,11.863906 L194.815409,11.863906 Z M204.52444,10.2613435 C205.974385,10.2613435 207.153748,11.204834 208.062565,13.0918435 C208.229066,13.6884715 208.312315,14.1532794 208.312315,14.486281 C208.312315,15.873788 207.233545,16.994183 205.075971,17.8474998 L205.075971,17.8891248 C205.658724,18.8534422 206.404498,19.3355936 207.313315,19.3355936 C208.575947,19.3355936 209.918339,18.3296661 211.340534,16.317781 C212.221601,15.3326511 212.891063,14.8400935 213.34894,14.8400935 L213.43219,14.8400935 L213.51544,14.9337498 L213.51544,15.360406 L213.473815,15.526906 C213.48769,15.5962814 213.54319,15.6448434 213.640315,15.6725935 C213.827629,15.6725935 213.949034,15.5234388 214.004534,15.2251248 L214.087784,15.2251248 L214.087784,15.2667498 C214.087784,15.7385021 213.678476,16.5154944 212.859846,17.5977498 C212.714158,17.8475011 212.613566,18.1215296 212.558065,18.4198436 C212.176501,18.5100315 211.985721,18.6661237 211.985721,18.8881248 C211.20178,20.1715688 210.050167,21.0769035 208.530846,21.6041561 C208.031344,21.7151567 207.625504,21.7706561 207.313315,21.7706561 L206.886659,21.7706561 C204.840086,21.7706561 202.828231,20.2929834 200.851034,17.3375936 L200.642909,13.9659685 L200.642909,13.653781 C200.642909,12.2732116 201.090373,11.4129702 201.985315,11.073031 C202.949632,10.5319033 203.795999,10.2613435 204.52444,10.2613435 Z M203.244471,14.3509998 C203.244471,15.1765664 203.476875,15.7593106 203.94169,16.0992498 C204.253879,16.0992498 204.739499,15.852971 205.398565,15.360406 C205.509566,15.0135293 205.565065,14.7360321 205.565065,14.527906 C205.565065,13.6884643 205.190444,13.1057201 204.44119,12.779656 L204.118596,12.738031 C203.688469,12.738031 203.473409,12.8733109 203.473409,13.1438748 C203.320783,13.4213761 203.244471,13.8237471 203.244471,14.3509998 Z M219.696753,9.22071846 C220.591695,9.44271957 221.039159,9.59187433 221.039159,9.66818721 C221.406848,10.521504 221.739845,11.5794622 222.038159,12.8420935 C222.607037,16.7340505 223.047564,19.2835563 223.359753,20.4906874 C223.449941,20.4906874 223.522784,20.7543097 223.578284,21.2815624 L223.578284,21.3648124 C223.578284,21.8365647 223.273037,22.0724374 222.662534,22.0724374 L222.579284,22.0724374 C221.698217,22.0724374 221.25769,21.9094078 221.25769,21.5833436 C220.841438,20.7300268 220.504973,19.6824748 220.248284,18.4406561 L219.332534,12.946156 L219.290909,12.946156 C218.312717,14.139412 217.161103,16.4495764 215.836034,19.8767186 C215.287969,20.9936617 214.982722,21.562531 214.920284,21.5833436 C214.920284,21.4931557 214.778067,21.4341875 214.493628,21.4064374 L213.879659,21.4064374 C213.62297,21.4064374 213.494628,21.2780949 213.494628,21.0214061 L213.005534,20.1472811 C213.387098,18.7597741 213.577878,16.324736 213.577878,12.8420935 C214.160631,12.4882792 214.465878,12.2732189 214.493628,12.196906 C214.493628,12.0720304 214.552596,12.0095935 214.670534,12.0095935 C215.690352,12.1483442 216.200253,12.2974989 216.200253,12.4570622 L216.075378,12.8420935 L216.117003,12.8837185 L216.158628,12.8837185 C216.713631,12.3564659 217.220063,11.6731289 217.67794,10.8336872 C218.413319,9.75836934 219.08625,9.22071846 219.696753,9.22071846 Z M229.104003,2.08203086 C229.742256,2.08203086 230.196658,2.40115268 230.467222,3.03940588 C229.912219,6.45961052 229.634722,9.15827107 229.634722,11.1354685 L229.634722,12.9253435 L230.207065,12.9669685 C231.441947,12.9669685 232.805152,12.7761892 234.296722,12.3946247 L235.004347,12.3529997 C235.6426,12.3529997 235.961722,12.6582467 235.961722,13.2687498 C235.961722,14.1775668 235.351228,14.7152177 234.130222,14.8817185 C233.589094,15.0274068 232.191202,15.1869677 229.936503,15.360406 C229.936503,15.4159063 229.83591,15.443656 229.634722,15.443656 L229.894878,18.1909061 C229.894878,18.5724705 229.80816,18.9124046 229.634722,19.2107186 C229.83591,19.4535323 229.936503,19.786529 229.936503,20.2097186 L229.936503,20.6363749 C229.936503,21.5937547 229.83591,22.1071245 229.634722,22.1764999 L228.542065,22.0932499 C228.41719,22.0932499 228.268035,22.1903739 228.094597,22.3846249 C227.345343,22.0585607 226.970722,20.8514478 226.970722,18.7632498 C226.970722,16.8762404 226.870129,15.9327498 226.66894,15.9327498 C226.412252,15.6621859 225.524261,15.526906 224.00494,15.526906 C223.325062,15.526906 222.842911,15.1626909 222.558472,14.4342498 L222.558472,14.3093748 C222.898411,13.560121 223.671934,13.1854998 224.879065,13.1854998 C225.517319,13.1993748 225.83644,13.2409994 225.83644,13.3103748 C226.051504,13.3103748 226.207596,13.1334703 226.304722,12.779656 L226.440003,12.696406 L226.804222,12.696406 L226.75219,12.1344685 C226.75219,9.72020639 227.001938,6.60183129 227.50144,2.77924962 C227.86913,2.31443479 228.344344,2.08203086 228.927097,2.08203086 L229.104003,2.08203086 Z M240.259503,11.0938435 C241.272383,11.0938435 241.834315,11.343591 241.945316,11.8430935 C242.132629,12.3079083 242.226284,12.6131553 242.226284,12.7588435 C242.038971,13.0710326 241.612319,13.3034365 240.946316,13.4560623 C238.941368,13.7682513 237.938909,14.0388111 237.938909,14.2677498 C238.237223,14.7533772 238.982997,15.1661543 240.176253,15.5060935 C242.264451,15.9847834 243.776811,16.45306 244.713378,16.9109373 C245.58057,17.4381899 246.014159,18.1354017 246.014159,19.0025936 C246.014159,20.4247882 244.74461,21.3821537 242.205472,21.8747186 C241.463156,22.0065318 240.765944,22.0724374 240.113816,22.0724374 C237.53999,21.898999 236.253097,21.6006895 236.253097,21.1774999 C235.982533,20.906936 235.847253,20.5704706 235.847253,20.1680936 L235.847253,19.9599686 C235.847253,19.432716 236.131688,18.9505645 236.700566,18.5134998 C238.136635,19.2072533 239.350686,19.5541248 240.342753,19.5541248 C241.14057,19.5541248 241.796157,19.3182522 242.309534,18.8464998 L242.309534,18.8048748 C241.567218,18.3955603 240.13117,17.9342211 238.001347,17.4208436 C235.899274,16.8103405 234.848253,16.0437544 234.848253,15.1210623 L234.848253,14.9961873 C234.848253,13.5739927 235.729307,12.4778786 237.491441,11.7078122 C238.386383,11.2984977 239.194593,11.0938435 239.916097,11.0938435 L240.259503,11.0938435 Z" id="Payments"></path>
                    </g>
                </g>
            </g>
        </g>
    </g>
</svg>
