<?xml version="1.0" encoding="utf-8"?>
<!-- Generator: Adobe Illustrator 22.1.0, SVG Export Plug-In . SVG Version: 6.00 Build 0)  -->
<svg version="1.1" id="Capa_1" xmlns="http://www.w3.org/2000/svg" xmlns:xlink="http://www.w3.org/1999/xlink" x="0px" y="0px"
	 viewBox="0 0 399.9 399.9" style="enable-background:new 0 0 399.9 399.9;" xml:space="preserve">
<style type="text/css">
	.st7 { fill: white; }
</style>
<g>
	<path class="st7" d="M274.6,184.2c-8.1-11.1-17.2-20.2-27-27.1c3.1-3.8,5.4-8.4,7.1-12.4c4.1-9.7,20.8-60.5,1.5-68.6
		c-2.4-1-4.9-1.1-7.4-0.6c0.2-5.3,0.2-10.5-0.2-15.3c-0.4-5.4-1.7-21.9-12.6-24.2c-6.1-1.3-11.5,2.7-16.1,8.7
		c-0.5-7.6-1.9-16.1-3.8-23.3C213.9,12.1,209.6,0,200,0S186,12.1,183.6,21.3c-1.9,7.3-3.2,15.7-3.8,23.3c-4.6-6-10-10-16.1-8.7
		c-10.9,2.3-12.2,18.8-12.6,24.2c-0.4,4.7-0.4,10-0.2,15.3c-2.5-0.5-5-0.4-7.4,0.6c-19.2,8.1-2.5,59,1.5,68.6c1.7,4,4,8.7,7.1,12.4
		c-9.8,6.9-18.9,16-27,27.1c-19,26-29.9,59.6-29.9,92.4c0,36.6,7.6,65.6,22.5,86.3c17.7,24.6,45.3,37,82,37s64.3-12.5,82-37
		c14.9-20.7,22.5-49.7,22.5-86.3C304.5,243.8,293.6,210.1,274.6,184.2z M286.8,249.2l-34.1,19.7L215,247.1l37.4-21.6l33.4,19.3
		C286.2,246.3,286.5,247.7,286.8,249.2z M162.5,277.4l37.5-21.6l37.7,21.7l-37.5,21.6L162.5,277.4z M237.6,338.1l-37.4,21.6
		l-37.4-21.6l37.4-21.6L237.6,338.1z M200.2,195.4l37.4,21.6l-37.4,21.6L162.8,217L200.2,195.4z M200.2,178l-27.1-15.6
		c8.6-4,17.6-6.3,26.8-6.3c9.3,0,18.5,2.3,27.1,6.4L200.2,178z M274.5,212.8c1.7,3.5,3.4,7.2,4.8,10.9l-11.8-6.8L274.5,212.8z
		 M267.2,199.9l-14.5,8.4l-37.4-21.6l26.4-15.2C251.3,178.9,260,188.6,267.2,199.9z M232.6,52.9c1.6,6.5,2.2,20.4,0.2,33.6
		c-3.3,3.5-6.3,7.5-9.1,11.5c-0.8-6.9-1.9-13.8-3.1-20.2C224.3,66.4,229.2,57.2,232.6,52.9z M200,19.2c2.1,5.7,4.2,15.2,5,24.6
		c-1.6-0.8-3.2-1.2-5-1.2s-3.4,0.4-5,1.2C195.8,34.4,197.9,24.9,200,19.2z M167.3,52.9c3.4,4.3,8.3,13.5,12.1,24.9
		c-1.3,6.4-2.3,13.3-3.1,20.2c-2.8-4-5.9-7.9-9.1-11.5C165.1,73.3,165.7,59.4,167.3,52.9z M150,91.1c1.3,0.9,2.8,2.2,4.6,4
		c0.1,0.1,0.3,0.3,0.4,0.4c6.1,6.4,14.3,17.6,20.6,30.4c1.5,3.1,5.1,4.8,8.5,4c3.4-0.8,5.8-3.8,5.8-7.3v-0.3
		c0-24.8,9.5-58.3,11-61.6c1.5,3.3,11,38.4,11,61.6v0.3c0,3.5,1.6,6.5,5,7.3c3.4,0.8,6.5-0.9,8-4c6.3-12.7,14.3-24,20.4-30.4
		c0.1-0.1,0.1-0.2,0.2-0.4c1.8-1.8,3.3-3.2,4.6-4.1c1.4,7.8-1.8,30.3-9.1,47.7c-1.2,2.9-4.1,9.1-6.7,10.3c-10.9-5.3-22.5-8-34.2-8
		c-11.8,0-23.3,2.8-34.2,8c-1.8-0.8-4.3-4.5-6.7-10.3C151.7,121.4,148.5,98.9,150,91.1z M158.5,171.3l26.7,15.4l-37.4,21.6
		l-14.9-8.6C140.1,188.4,148.9,178.7,158.5,171.3z M125.4,212.8l7.3,4.2l-12.3,7.1C122,220.2,123.6,216.4,125.4,212.8z M114,245.2
		l12.4-7.2l21.3-12.3l37.4,21.6l-37.5,21.6l-25.6-14.8l-8.9-5.1C113.5,247.7,113.7,246.4,114,245.2z M110.5,276.6
		c0-3.9,0.2-7.7,0.5-11.5l21.7,12.5l-21.8,12.6C110.6,285.8,110.5,281.3,110.5,276.6z M113,309.4c-0.2-1-0.3-2.1-0.5-3.2l9.5-5.5
		l25.4-14.7l37.7,21.7l-37.4,21.6L124,315.8L113,309.4z M123.6,343.3c-2.2-4.2-4.1-8.8-5.7-13.7l11.5,6.6l3.3,1.9l-2.1,1.2
		L123.6,343.3z M165.5,379.7c-13.9-4.7-25.1-12.6-33.8-23.7l5.2-3l10.8-6.2l37.4,21.6L165.5,379.7z M200,384.9
		c-4.3,0-8.3-0.2-12.3-0.6l12.5-7.2l12.4,7.2C208.5,384.7,204.3,384.9,200,384.9z M234.7,379.7l-19.5-11.3l37.4-21.6l15.7,9.1
		C259.7,367,248.5,374.9,234.7,379.7z M276.4,343.2l-8.7-5l14.2-8.2C280.3,334.6,278.5,339.1,276.4,343.2z M286.9,309.7l-34.3,19.8
		l-37.4-21.6l37.5-21.6l34.7,20C287.2,307.4,287.1,308.6,286.9,309.7z M267.7,277.5l21.2-12.2c0.3,3.7,0.5,7.5,0.5,11.3
		c0,4.6-0.1,9-0.4,13.2L267.7,277.5z"/>
</g>
</svg>
