<?xml version="1.0" encoding="UTF-8"?>
<svg width="10px" height="10px" viewBox="0 0 10 10" version="1.1" xmlns="http://www.w3.org/2000/svg" xmlns:xlink="http://www.w3.org/1999/xlink">
    <!-- Generator: Sketch 50.2 (55047) - http://www.bohemiancoding.com/sketch -->
    <title>remove</title>
    <desc>Created with Sketch.</desc>
    <defs></defs>
    <g id="Page-1" stroke="none" stroke-width="1" fill="none" fill-rule="evenodd" fill-opacity="0.501783288">
        <g id="dashboard" transform="translate(-1271.000000, -323.000000)" fill="#000000">
            <g id="notifications" transform="translate(383.000000, 252.000000)">
                <g id="outstanding-alert-copy" transform="translate(0.000000, 57.000000)">
                    <path d="M892.994429,20.2540505 L889.518711,23.7297687 C889.17526,24.0732202 888.60704,24.0742568 888.257212,23.7244291 C887.904946,23.3721624 887.904994,22.8098091 888.251873,22.4629304 L891.720374,18.9944293 L888.251873,15.5259282 C887.908421,15.1824767 887.907385,14.6142573 888.257212,14.2644296 C888.609479,13.9121629 889.171832,13.9122112 889.518711,14.2590899 L893.005571,17.7459495 L896.481289,14.2702313 C896.82474,13.9267798 897.39296,13.9257432 897.742788,14.2755709 C898.095054,14.6278376 898.095006,15.1901909 897.748127,15.5370696 L894.279626,19.0055707 L897.748127,22.4740718 C898.091579,22.8175233 898.092615,23.3857427 897.742788,23.7355704 C897.390521,24.0878371 896.828168,24.0877888 896.481289,23.7409101 L892.994429,20.2540505 Z" id="remove"></path>
                </g>
            </g>
        </g>
    </g>
</svg>