<?xml version="1.0" encoding="UTF-8"?>
<svg width="24px" height="24px" viewBox="0 0 24 24" version="1.1" xmlns="http://www.w3.org/2000/svg" xmlns:xlink="http://www.w3.org/1999/xlink">
    <!-- Generator: Sketch 49.3 (51167) - http://www.bohemiancoding.com/sketch -->
    <title>Shape</title>
    <desc>Created with Sketch.</desc>
    <defs></defs>
    <g id="Page-1" stroke="none" stroke-width="1" fill="none" fill-rule="evenodd" fill-opacity="0.4">
        <g id="view-invoices" transform="translate(-399.000000, -42.000000)" fill="#1F1F1F" fill-rule="nonzero">
            <g id="header" transform="translate(100.000000, 29.000000)">
                <g id="search" transform="translate(291.000000, 3.000000)">
                    <path d="M31.7137344,30.2507396 L27.1910254,25.725928 C26.79153,25.3264326 26.0703355,25.3642796 25.3491412,25.7406463 L23.37269,23.7684004 C25.944179,20.4063308 25.7065844,15.5850515 22.6304695,12.5089365 C19.2831181,9.16368782 13.8562879,9.16368782 10.5089365,12.5089365 C7.16368782,15.8583905 7.16368782,21.2831182 10.5089365,24.6304695 C13.5829489,27.7044818 18.4084334,27.9462817 21.7662978,25.3726899 L23.7406463,27.3470385 C23.3642795,28.0703356 23.3264326,28.7915299 23.7238254,29.1868202 L28.248637,33.7137344 C28.8184437,34.2856436 30.0610848,33.9744578 31.0156686,33.0135661 C31.9744577,32.0610848 32.283541,30.8205463 31.7137344,30.2507396 M11.7831168,23.3562893 C9.14013898,20.7133115 9.14013898,16.4260945 11.7831168,13.7831168 C14.4281971,11.140139 18.7070037,11.1422416 21.3541866,13.7831168 C23.9971644,16.4260945 23.9971644,20.7091063 21.3541866,23.3562893 C18.7070037,25.999267 14.4260945,25.999267 11.7831168,23.3562893" id="Shape"></path>
                </g>
            </g>
        </g>
    </g>
</svg>