<?xml version="1.0" encoding="UTF-8"?>
<svg width="33px" height="30px" viewBox="0 0 33 30" version="1.1" xmlns="http://www.w3.org/2000/svg" xmlns:xlink="http://www.w3.org/1999/xlink">
    <!-- Generator: Sketch 50.2 (55047) - http://www.bohemiancoding.com/sketch -->
    <title>Group</title>
    <desc>Created with Sketch.</desc>
    <defs></defs>
    <g id="Page-1" stroke="none" stroke-width="1" fill="none" fill-rule="evenodd">
        <g id="dashboard" transform="translate(-415.000000, -540.000000)" fill="#006F8E">
            <g id="buttons" transform="translate(383.000000, 381.000000)">
                <g id="statistics" transform="translate(0.000000, 123.000000)">
                    <g id="Group-2" transform="translate(32.000000, 24.000000)">
                        <g id="Group" transform="translate(0.000000, 12.000000)">
                            <path d="M20.625,5.00083333 C20.625,4.42583333 20.70255,3.8725 20.82465,3.33416667 L0,3.33416667 L0,6.6675 L20.82465,6.6675 C20.70255,6.12916667 20.625,5.57583333 20.625,5.00083333" id="Fill-43"></path>
                            <path d="M20.625,25.0008333 C20.625,24.4258333 20.70255,23.8725 20.82465,23.3341667 L0,23.3341667 L0,26.6675 L20.82465,26.6675 C20.70255,26.1291667 20.625,25.5758333 20.625,25.0008333" id="Fill-44"></path>
                            <path d="M4.125,15.0008333 C4.125,14.4258333 4.20255,13.8725 4.32465,13.3341667 L0,13.3341667 L0,16.6675 L4.32465,16.6675 C4.20255,16.1291667 4.125,15.5758333 4.125,15.0008333" id="Fill-45"></path>
                            <path d="M18.775185,13.3341667 C18.897285,13.8725 18.974835,14.4258333 18.974835,15.0008333 C18.974835,15.5758333 18.897285,16.1291667 18.775185,16.6675 L32.999835,16.6675 L32.999835,13.3341667 L18.775185,13.3341667 Z" id="Fill-46"></path>
                            <path d="M28.05,0.000833333333 C25.3209,0.000833333333 23.1,2.24416667 23.1,5.00083333 C23.1,7.7575 25.3209,10.0008333 28.05,10.0008333 C30.7791,10.0008333 33,7.7575 33,5.00083333 C33,2.24416667 30.7791,0.000833333333 28.05,0.000833333333" id="Fill-47"></path>
                            <path d="M11.55,10.0008333 C8.8209,10.0008333 6.6,12.2441667 6.6,15.0008333 C6.6,17.7575 8.8209,20.0008333 11.55,20.0008333 C14.2791,20.0008333 16.5,17.7575 16.5,15.0008333 C16.5,12.2441667 14.2791,10.0008333 11.55,10.0008333" id="Fill-48"></path>
                            <path d="M28.05,20.0008333 C25.3209,20.0008333 23.1,22.2441667 23.1,25.0008333 C23.1,27.7575 25.3209,30.0008333 28.05,30.0008333 C30.7791,30.0008333 33,27.7575 33,25.0008333 C33,22.2441667 30.7791,20.0008333 28.05,20.0008333" id="Fill-49"></path>
                        </g>
                    </g>
                </g>
            </g>
        </g>
    </g>
</svg>