<?xml version="1.0" encoding="UTF-8"?>
<svg width="37px" height="35px" viewBox="0 0 37 35" version="1.1" xmlns="http://www.w3.org/2000/svg" xmlns:xlink="http://www.w3.org/1999/xlink">
    <!-- Generator: Sketch 50.2 (55047) - http://www.bohemiancoding.com/sketch -->
    <title>support</title>
    <desc>Created with Sketch.</desc>
    <defs></defs>
    <g id="Page-1" stroke="none" stroke-width="1" fill="none" fill-rule="evenodd">
        <g id="dashboard" transform="translate(-874.000000, -539.000000)" fill="#F4BD00">
            <g id="buttons" transform="translate(383.000000, 381.000000)">
                <g id="get-support" transform="translate(465.000000, 123.000000)">
                    <g id="Group-3" transform="translate(26.000000, 24.000000)">
                        <g id="support" transform="translate(0.000000, 11.000000)">
                            <path d="M23.125,22.2381679 C22.8906667,22.2381679 22.65325,22.1825745 22.435875,22.0713876 C21.91325,21.8029508 21.5833333,21.2517816 21.5833333,20.6497841 L21.5833333,17.4730164 L20.0416667,17.4730164 L20.0416667,14.2962487 L23.125,14.2962487 C23.976,14.2962487 24.6666667,15.0078447 24.6666667,15.8846326 L24.6666667,17.4730164 L28.3666667,14.6139255 C28.633375,14.4074356 28.9586667,14.2962487 29.2916667,14.2962487 L33.9166667,14.2962487 L33.9166667,3.17756187 L18.5,3.17756187 L18.5,7.94271338 L15.4166667,7.94271338 L15.4166667,3.17756187 C15.4166667,1.42398611 16.7995417,0.000794191919 18.5,0.000794191919 L33.9166667,0.000794191919 C35.617125,0.000794191919 37,1.42398611 37,3.17756187 L37,14.2962487 C37,16.0482361 35.617125,17.4730164 33.9166667,17.4730164 L29.8050417,17.4730164 L24.05,21.9204912 C23.777125,22.1301578 23.4518333,22.2381679 23.125,22.2381679" id="Fill-81"></path>
                            <path d="M12.3333333,22.2381679 C15.73425,22.2381679 18.5,19.3886073 18.5,15.8846326 C18.5,12.3806578 15.73425,9.53109722 12.3333333,9.53109722 C8.93241667,9.53109722 6.16666667,12.3806578 6.16666667,15.8846326 C6.16666667,19.3886073 8.93241667,22.2381679 12.3333333,22.2381679" id="Fill-82"></path>
                            <path d="M12.3333333,23.8265518 C5.07208333,23.8265518 0,27.7450947 0,33.3568548 L0,34.9452386 L24.6666667,34.9452386 L24.6666667,33.3568548 C24.6666667,27.7450947 19.5945833,23.8265518 12.3333333,23.8265518" id="Fill-83"></path>
                        </g>
                    </g>
                </g>
            </g>
        </g>
    </g>
</svg>