<svg xmlns="http://www.w3.org/2000/svg" x="0px" y="0px"
     width="50" height="50"
     viewBox="0 0 32 32"
     style="fill:#000000;">
     <g id="surface1">
        <path style=" " d="M 16 3 C 12.144531 3 9 6.144531 9 10 C 9 12.09375 10.035156 13.871094 11.5 15.15625 L 9.40625 19.03125 C 9.269531 19.011719 9.140625 19 9 19 C 7.355469 19 6 20.355469 6 22 C 6 23.644531 7.355469 25 9 25 C 10.644531 25 12 23.644531 12 22 C 12 21.203125 11.671875 20.476563 11.15625 19.9375 L 14 14.65625 L 13.25 14.15625 C 11.902344 13.261719 11 11.746094 11 10 C 11 7.226563 13.226563 5 16 5 C 18.773438 5 21 7.226563 21 10 C 21 10.585938 20.902344 11.136719 20.71875 11.65625 L 22.59375 12.34375 C 22.855469 11.613281 23 10.816406 23 10 C 23 6.144531 19.855469 3 16 3 Z M 16 7 C 14.355469 7 13 8.355469 13 10 C 13 11.644531 14.355469 13 16 13 C 16.140625 13 16.269531 12.988281 16.40625 12.96875 L 19.15625 17.34375 L 19.65625 18.15625 L 20.5 17.65625 C 21.234375 17.230469 22.085938 17 23 17 C 25.773438 17 28 19.226563 28 22 C 28 24.773438 25.773438 27 23 27 C 21.511719 27 20.195313 26.367188 19.28125 25.34375 L 17.78125 26.65625 C 19.0625 28.085938 20.933594 29 23 29 C 26.855469 29 30 25.855469 30 22 C 30 18.144531 26.855469 15 23 15 C 22.078125 15 21.277344 15.363281 20.46875 15.6875 L 18.1875 12.03125 C 18.6875 11.496094 19 10.78125 19 10 C 19 8.355469 17.644531 7 16 7 Z M 16 9 C 16.5625 9 17 9.4375 17 10 C 17 10.5625 16.5625 11 16 11 C 15.4375 11 15 10.5625 15 10 C 15 9.4375 15.4375 9 16 9 Z M 7.84375 15.09375 C 7.042969 15.230469 6.242188 15.507813 5.5 15.9375 C 2.164063 17.863281 1.011719 22.164063 2.9375 25.5 C 4.863281 28.835938 9.160156 29.988281 12.5 28.0625 C 14.410156 26.957031 15.441406 25.03125 15.75 23 L 20.1875 23 C 20.605469 24.15625 21.707031 25 23 25 C 24.644531 25 26 23.644531 26 22 C 26 20.355469 24.644531 19 23 19 C 21.707031 19 20.605469 19.84375 20.1875 21 L 14 21 L 14 22 C 14 23.726563 13.109375 25.414063 11.5 26.34375 C 9.097656 27.730469 6.042969 26.902344 4.65625 24.5 C 3.269531 22.097656 4.097656 19.042969 6.5 17.65625 C 7.03125 17.347656 7.585938 17.160156 8.15625 17.0625 Z M 9 21 C 9.5625 21 10 21.4375 10 22 C 10 22.5625 9.5625 23 9 23 C 8.4375 23 8 22.5625 8 22 C 8 21.4375 8.4375 21 9 21 Z M 23 21 C 23.5625 21 24 21.4375 24 22 C 24 22.5625 23.5625 23 23 23 C 22.4375 23 22 22.5625 22 22 C 22 21.4375 22.4375 21 23 21 Z ">
        </path>
    </g>
</svg>